<svg width="48" height="46" viewBox="0 0 48 46" fill="none" xmlns="http://www.w3.org/2000/svg">
<path fill-rule="evenodd" clip-rule="evenodd" d="M34.3283 12.2842C34.8951 14.0868 33.2909 15.6689 31.4126 15.8749C27.5781 16.2954 23.8555 17.9756 20.9156 20.9155C17.9756 23.8554 16.2954 27.5781 15.8749 31.4126C15.6689 33.291 14.0868 34.8951 12.2842 34.3284C9.67288 33.5073 7.21545 32.062 5.14588 29.9924C-1.71529 23.1312 -1.7153 12.0071 5.1459 5.14587C12.0071 -1.7153 23.1312 -1.71529 29.9924 5.14589C32.062 7.21545 33.5073 9.67287 34.3283 12.2842ZM19.9729 10.2869C21.082 11.396 22.8802 11.396 23.9893 10.2869C25.0984 9.17784 25.0984 7.37963 23.9893 6.27054C22.8802 5.16145 21.082 5.16145 19.9729 6.27055C18.8638 7.37965 18.8639 9.17782 19.9729 10.2869ZM6.27479 23.9851C7.38388 25.0942 9.18204 25.0942 10.2911 23.9851C11.4002 22.876 11.4002 21.0778 10.2912 19.9687C9.18206 18.8596 7.38386 18.8596 6.27476 19.9687C5.16566 21.0778 5.16569 22.876 6.27479 23.9851ZM8.81128 12.824C9.92038 13.9331 11.7185 13.9331 12.8276 12.824C13.9367 11.7149 13.9367 9.9167 12.8277 8.8076C11.7186 7.69851 9.92036 7.69852 8.81126 8.80762C7.70216 9.91672 7.70219 11.7149 8.81128 12.824ZM36.2615 29.8403C37.6198 28.562 39.0604 27.1744 40.4754 25.7594C45.8669 20.368 48.4107 15.0785 47.3875 13.7785C46.0875 12.7553 40.7981 15.2991 35.4066 20.6906C33.9916 22.1056 32.604 23.5462 31.3257 24.9045L36.2615 29.8403ZM34.124 31.7503C33.5859 32.2392 32.964 32.8104 32.3576 33.3675C31.32 34.3206 30.3275 35.2323 29.8757 35.62L25.546 31.2903C25.9337 30.8385 26.8454 29.846 27.7985 28.8085C28.3556 28.202 28.9268 27.5802 29.4157 27.042L34.124 31.7503ZM23.5554 33.1706L28.0485 37.6637C28.1175 41.3735 24.7538 44.8751 21.2055 45.4742C18.3669 45.9534 15.5068 45.6124 14.4316 45.382C15.1305 44.8214 16.5974 43.2439 16.8739 41.4191C16.9637 40.8265 16.9686 40.2586 16.9734 39.7067C16.9871 38.1342 16.9996 36.6912 18.9706 35.175C21.0345 33.5873 23.2102 33.2277 23.5411 33.173L23.5554 33.1706Z" fill="#5AB880"/>
</svg>
