<svg width="73" height="71" viewBox="0 0 73 71" fill="none" xmlns="http://www.w3.org/2000/svg">
<path d="M22.1242 8.77161C27.0065 5.85005 32.7179 4.1709 38.8214 4.1709C56.8062 4.1709 71.3858 18.7505 71.3858 36.7354C71.3858 54.7202 56.8062 69.2998 38.8214 69.2998C20.8365 69.2998 6.2569 54.7202 6.2569 36.7354C6.2569 31.1879 7.64405 25.9644 10.0904 21.3928" stroke="#1FADED" stroke-width="3"/>
<path d="M5.43852 17.5377C3.67345 18.2682 3.8393 20.821 5.68407 21.317L8.90753 22.1838C9.33156 22.2978 9.72539 22.5035 10.0612 22.7864L12.6142 24.9368C14.0753 26.1674 16.2651 24.8451 15.8563 22.9791L14.4084 16.3702C14.1419 15.1537 12.8405 14.474 11.6899 14.9502L5.43852 17.5377Z" fill="#1FADED"/>
<path d="M37.8018 20.6345L34.6755 35.8831C34.4245 37.1074 34.7601 38.3786 35.5827 39.3194L44.0079 48.9551C45.5628 50.7333 48.3742 48.8202 47.2908 46.7213L42.1968 36.8526C41.9036 36.2845 41.7508 35.6544 41.7512 35.0151L41.761 21.0376C41.7627 18.6269 38.2859 18.2729 37.8018 20.6345Z" fill="#1FADED"/>
</svg>
