<svg width="69" height="69" viewBox="0 0 69 69" fill="none" xmlns="http://www.w3.org/2000/svg">
<rect x="45.4636" y="22.3066" width="21.57" height="44.3435" stroke="#E3B457" stroke-width="3"/>
<rect width="32.6373" height="21.6508" transform="matrix(-1 0 0 1 45.4636 45)" stroke="#E3B457" stroke-width="3"/>
<path d="M12.9065 66.6507H1.99999V1.53711H35.1979V34.0939V45.3201" stroke="#E3B457" stroke-width="3"/>
<path d="M35.1979 27.9392V14.1868L45.5827 7.31055L55.9675 14.1868V22.0655" stroke="#E3B457" stroke-width="3"/>
<rect x="21.487" y="53.5801" width="4.89108" height="4.89108" fill="#E3B457"/>
<rect x="32.3522" y="53.5801" width="4.89108" height="4.89108" fill="#E3B457"/>
<rect x="54.2038" y="30.8066" width="11.9872" height="4.89108" fill="#E3B457"/>
<rect x="54.2038" y="42.1934" width="11.9872" height="4.89108" fill="#E3B457"/>
<rect x="54.2038" y="53.5801" width="11.9872" height="4.89108" fill="#E3B457"/>
<rect x="10.5007" y="10.1172" width="4.89108" height="4.89108" fill="#E3B457"/>
<rect x="21.3659" y="10.1172" width="4.89108" height="4.89108" fill="#E3B457"/>
<rect x="10.5007" y="21.0234" width="4.89108" height="4.89108" fill="#E3B457"/>
<rect x="10.5007" y="31.9297" width="4.89108" height="4.89108" fill="#E3B457"/>
<rect x="21.3659" y="21.0234" width="4.89108" height="4.89108" fill="#E3B457"/>
<rect x="21.3659" y="31.9297" width="4.89108" height="4.89108" fill="#E3B457"/>
</svg>
