<svg width="42" height="34" viewBox="0 0 42 34" fill="none" xmlns="http://www.w3.org/2000/svg">
<path fill-rule="evenodd" clip-rule="evenodd" d="M0 30.7763V9.45221H41.7719V30.7763C41.7719 32.2525 40.5752 33.4492 39.099 33.4492H2.6729C1.19669 33.4492 0 32.2525 0 30.7763ZM3.66393 13.3589H17.774V29.5426H3.66393V13.3589ZM20.8009 13.3589H38.108V20.4172H20.8009V13.3589ZM38.108 22.8694H30.9887V29.5426H38.108V22.8694ZM27.9197 29.5426V22.8694H20.8009V29.5426H27.9197Z" fill="#B289E5"/>
<path fill-rule="evenodd" clip-rule="evenodd" d="M0 2.73345C0 1.25724 1.19669 0.0605469 2.6729 0.0605469H39.099C40.5752 0.0605469 41.7719 1.25724 41.7719 2.73345V5.88783H0V2.73345ZM3.5717 4.75612C4.55587 4.75612 5.35363 3.95836 5.35363 2.97419C5.35363 1.99001 4.55587 1.19226 3.5717 1.19226C2.58752 1.19226 1.78976 1.99001 1.78976 2.97419C1.78976 3.95836 2.58752 4.75612 3.5717 4.75612ZM10.0382 2.97419C10.0382 3.95836 9.24041 4.75612 8.25624 4.75612C7.27206 4.75612 6.4743 3.95836 6.4743 2.97419C6.4743 1.99001 7.27206 1.19226 8.25624 1.19226C9.24041 1.19226 10.0382 1.99001 10.0382 2.97419ZM12.9408 4.75612C13.9249 4.75612 14.7227 3.95836 14.7227 2.97419C14.7227 1.99001 13.9249 1.19226 12.9408 1.19226C11.9566 1.19226 11.1588 1.99001 11.1588 2.97419C11.1588 3.95836 11.9566 4.75612 12.9408 4.75612Z" fill="#B289E5"/>
</svg>
