<svg width="82" height="73" viewBox="0 0 82 73" fill="none" xmlns="http://www.w3.org/2000/svg">
<path d="M15.2855 70.7707L63.2484 44.5148C64.0732 43.8098 65.6591 41.841 65.4037 39.6064C65.1483 37.3718 63.8341 36.8131 63.209 36.813" stroke="#4AC882" stroke-width="3"/>
<path d="M80.4073 53.0532L63.6494 44.5942M67.6389 70.7705L41.1429 56.7244" stroke="#4AC882" stroke-width="3"/>
<path d="M1 49.7814L13.7283 43.1179" stroke="#4AC882" stroke-width="3"/>
<path d="M27.6961 40.0853C21.3102 39.6457 17.2799 37.4909 14.7261 36.0942C11.3416 38.7762 12.2934 42.0798 13.8895 43.7956C17.7588 45.5913 23.3191 45.4591 25.7 44.9537C28.1262 43.4852 28.0416 41.0962 27.6961 40.0853Z" stroke="#4AC882" stroke-width="3"/>
<path d="M40.5031 18.1765L55.8269 12.9897C57.2768 12.8701 60.0235 12.655 61.1727 15.145C62.3219 17.635 60.6406 20.105 59.4169 20.8101L50.3987 24.4812" stroke="#4AC882" stroke-width="3"/>
<path d="M55.1879 31.4255L61.4532 28.4727C62.1316 27.2224 63.0095 22.7258 59.1787 21.1306" stroke="#4AC882" stroke-width="3"/>
<path d="M58.7406 39.0478L63.3695 36.7725C64.4067 35.0834 65.4755 31.0589 61.4532 28.4731" stroke="#4AC882" stroke-width="3"/>
<path d="M44.3351 15.7824V12.0049C41.1032 12.9703 34.1923 13.2896 32.4047 6.84348L48.2159 3.00261C49.6904 2.64442 51.2002 3.44365 51.733 4.86444L54.8696 13.2286" stroke="#4AC882" stroke-width="3"/>
<path d="M23.6646 13.5883L27.5364 3.71735C28.0603 2.38166 29.4566 1.6039 30.868 1.86161L43.2972 4.13099" stroke="#4AC882" stroke-width="3"/>
<path d="M31.8053 25.2802L15.6042 19.3759C14.0079 14.2054 17.759 12.1132 19.8341 11.7134L34.0397 17.4597C36.5297 21.865 33.5876 24.5089 31.8053 25.2802Z" stroke="#4AC882" stroke-width="3"/>
<path d="M31.7258 25.1997L15.6848 19.4536C11.6309 22.9964 13.2507 26.304 14.5673 27.515C20.0261 30.1646 27.8552 32.1837 31.0874 32.8621C34.4393 30.3721 32.9096 26.7163 31.7258 25.1997Z" stroke="#4AC882" stroke-width="3"/>
<path d="M31.0481 32.9028C24.6639 31.6266 17.4544 28.832 14.6477 27.5942C12.3859 29.3823 12.1715 32.0523 12.4337 33.7557C12.5296 34.3782 12.924 34.9021 13.4453 35.2556C19.3339 39.2496 25.3952 40.1483 27.7754 40.0846C32.6277 37.7862 31.979 34.3391 31.0481 32.9028Z" stroke="#4AC882" stroke-width="3"/>
</svg>
