<svg width="45" height="46" viewBox="0 0 45 46" fill="none" xmlns="http://www.w3.org/2000/svg">
<path fill-rule="evenodd" clip-rule="evenodd" d="M23.3515 0.691638L22.1615 0.675781L21.0114 0.691638C20.2275 0.70221 19.5382 1.21153 19.2846 1.95328C18.9461 2.94346 18.5307 4.10834 18.2655 4.73191C18.1319 5.04607 17.9009 5.45157 17.634 5.86453C16.128 6.26665 14.7016 6.86352 13.3834 7.62669C12.9018 7.52328 12.4508 7.39967 12.1336 7.27187C11.5052 7.01843 10.3879 6.48851 9.44831 6.02771C8.74444 5.68252 7.8969 5.80978 7.3352 6.35664L6.51104 7.15897L6.49675 7.17293L6.48245 7.18676L5.68045 8.01132C5.13359 8.57309 5.00633 9.42056 5.35159 10.1244C5.81239 11.064 6.34231 12.1813 6.59575 12.8097C6.72369 13.1272 6.84729 13.5786 6.95077 14.0607C6.18828 15.3783 5.59188 16.8039 5.19011 18.3091C4.77667 18.5764 4.37063 18.8077 4.05613 18.9415C3.43256 19.2067 2.26775 19.622 1.2775 19.9606C0.535748 20.2141 0.0264283 20.9034 0.0159247 21.6873L0 22.8773L0.0159247 24.0274C0.0264283 24.8113 0.535748 25.5006 1.2775 25.7542C2.26775 26.0927 3.43256 26.5081 4.05613 26.7732C4.3709 26.9071 4.77728 27.1387 5.19105 27.4063C5.5929 28.9105 6.18923 30.3355 6.95138 31.6523C6.84784 32.1349 6.7241 32.5869 6.59602 32.9047C6.34258 33.533 5.81266 34.6505 5.35179 35.5901C5.0066 36.2939 5.13386 37.1414 5.68072 37.7031L6.48313 38.5273L6.49702 38.5415L6.51091 38.5559L7.33547 39.3578C7.89717 39.9047 8.74471 40.0319 9.44851 39.6868C10.3881 39.226 11.5054 38.696 12.1339 38.4426C12.4517 38.3144 12.904 38.1906 13.3868 38.0871C14.7035 38.849 16.1281 39.4451 17.6321 39.8468C17.8998 40.2609 18.1316 40.6673 18.2655 40.9823C18.5307 41.6059 18.9461 42.7707 19.2846 43.7609C19.5382 44.5027 20.2275 45.012 21.0114 45.0226L22.2014 45.0384L23.3515 45.0226C24.1354 45.012 24.8246 44.5027 25.0783 43.7609C25.4167 42.7707 25.8321 41.6059 26.0973 40.9823C26.2312 40.6674 26.463 40.2609 26.7306 39.8469C28.2347 39.4452 29.6595 38.8493 30.9762 38.0874C31.4589 38.1909 31.9109 38.3147 32.2287 38.4427C32.8571 38.696 33.9744 39.2261 34.914 39.6869C35.6179 40.0321 36.4654 39.9048 37.0271 39.358L37.8512 38.5556L37.8798 38.5277L38.6818 37.7033C39.2287 37.1415 39.356 36.294 39.0107 35.5901C38.5499 34.6506 38.02 33.5332 37.7665 32.9047C37.6385 32.5873 37.5149 32.1357 37.4114 31.6535C38.174 30.3362 38.7707 28.9107 39.1727 27.4056C39.5861 27.1383 39.9921 26.907 40.3065 26.7732C40.9301 26.5081 42.095 26.0927 43.0851 25.7542C43.827 25.5006 44.3363 24.8113 44.3468 24.0274L44.3627 22.8374L44.3468 21.6873C44.3363 20.9034 43.827 20.2141 43.0851 19.9606C42.095 19.622 40.9301 19.2067 40.3065 18.9415C39.9923 18.8079 39.5867 18.5768 39.1736 18.3098C38.7717 16.8039 38.175 15.3775 37.412 14.0593C37.5154 13.5778 37.6389 13.1267 37.7668 12.8096C38.0202 12.1812 38.5502 11.0639 39.011 10.1242C39.3562 9.42042 39.229 8.57295 38.682 8.01118L37.8797 7.18703L37.8657 7.1728L37.8519 7.15843L37.0274 6.3565C36.4657 5.80964 35.6181 5.68238 34.9143 6.02757C33.9747 6.48837 32.8573 7.01829 32.2289 7.27174C31.9119 7.39954 31.461 7.52301 30.9796 7.62642C29.6614 6.86325 28.2348 6.26624 26.7287 5.86426C26.4619 5.4513 26.2309 5.04607 26.0973 4.73191C25.8321 4.10834 25.4167 2.94346 25.0783 1.95328C24.8246 1.21153 24.1354 0.70221 23.3515 0.691638ZM22.1812 35.4157C29.1175 35.4157 34.7404 29.7927 34.7404 22.8566C34.7404 15.9203 29.1175 10.2973 22.1812 10.2973C15.245 10.2973 9.62206 15.9203 9.62206 22.8566C9.62206 29.7927 15.245 35.4157 22.1812 35.4157Z" fill="#39AEBE"/>
<path d="M29.1926 23.819C29.9328 23.3917 29.9328 22.3233 29.1926 21.896L19.5093 16.3054C18.7691 15.878 17.8439 16.4122 17.8439 17.2668V28.4481C17.8439 29.3028 18.7691 29.8371 19.5093 29.4097L29.1926 23.819Z" fill="#39AEBE"/>
</svg>
