<svg width="84" height="70" viewBox="0 0 84 70" fill="none" xmlns="http://www.w3.org/2000/svg">
<path d="M0 37.0957H24.2414C24.5998 37.0957 24.9308 36.9039 25.109 36.5929L28.2615 31.0912C28.6746 30.3702 29.7358 30.4384 30.0532 31.2063L36.5023 46.8051C36.8883 47.7389 38.2578 47.5762 38.4143 46.578L41.9355 24.1241C42.0975 23.0908 43.5365 22.9683 43.8709 23.9593L49.1581 39.6277C49.4175 40.3966 50.4364 40.5526 50.914 39.8966L55.3595 33.791C55.7762 33.2188 56.6392 33.2487 57.0152 33.8485L58.7568 36.6268C58.9397 36.9186 59.2598 37.0957 59.6041 37.0957H84" stroke="#F04647" stroke-width="3"/>
<path d="M5.48318 14.067C15.8999 -6.09528 34.7626 3.45342 41.0437 12.0369C41.5017 12.6627 42.4995 12.6636 42.9617 12.0409C49.3342 3.45654 69.0441 -6.09763 78.5168 14.067C88.0999 35.3842 48.332 63.744 42.5361 67.7303C42.2004 67.9612 41.7996 67.9612 41.4639 67.7303C35.668 63.744 -4.09985 35.3842 5.48318 14.067Z" stroke="#F04647" stroke-width="3"/>
</svg>
