<svg width="48" height="26" viewBox="0 0 48 26" fill="none" xmlns="http://www.w3.org/2000/svg">
<path d="M44.4405 2.41558C46.5888 2.90827 47.9243 5.00366 47.603 7.18417L47.2965 9.26492C40.475 7.57226 32.4431 6.59602 23.8457 6.59602C15.2481 6.59602 7.21618 7.57236 0.394602 9.26503L0.0880428 7.18428C-0.233207 5.00376 1.10237 2.90838 3.25066 2.41569C9.32685 1.02242 16.3558 0.226562 23.8457 0.226562C31.3355 0.226562 38.3644 1.02231 44.4405 2.41558Z" fill="#5C90DE"/>
<path d="M46.7799 12.771L45.6315 20.5658C45.2137 23.4017 42.9696 25.4873 40.3358 25.4873H31.2588C29.957 25.4873 28.6997 24.9711 27.7213 24.0347L25.0711 21.4726C24.3876 20.8119 23.3035 20.8119 22.62 21.4726L19.9698 24.0347C18.9914 24.9711 17.7341 25.4873 16.4323 25.4873H7.35528C4.72152 25.4873 2.47745 23.4017 2.05961 20.5658L0.911184 12.7711C7.47113 11.1098 15.3326 10.1226 23.8457 10.1226C32.3586 10.1226 40.2201 11.1098 46.7799 12.771Z" fill="#5C90DE"/>
</svg>
