<svg width="48" height="31" viewBox="0 0 48 31" fill="none" xmlns="http://www.w3.org/2000/svg">
<g opacity="0.8">
<path d="M13.3306 24.9899C16.9372 21.3447 21.3672 21.0793 23.8499 21.0756C26.3326 21.0793 30.7626 21.3447 34.3691 24.9899C38.5217 29.1869 41.8963 30.2486 43.9848 28.9853C46.715 27.3339 46.2621 19.5958 45.0726 14.1655C43.8546 8.60552 41.0259 3.0853 37.4144 1.77941C34.6943 0.795834 32.4779 1.45249 29.9096 2.21337C28.1474 2.73543 26.2196 3.30656 23.8499 3.4306C21.4802 3.30656 19.5524 2.73543 17.7902 2.21337C15.2219 1.45249 13.0054 0.795834 10.2853 1.77941C6.67388 3.0853 3.84521 8.60552 2.62724 14.1655C1.43767 19.5958 0.984822 27.3339 3.71503 28.9853C5.80351 30.2486 9.17811 29.1869 13.3306 24.9899Z" stroke="white" stroke-width="2"/>
<path fill-rule="evenodd" clip-rule="evenodd" d="M11.3074 9.22598C11.3074 8.19388 12.1451 7.3572 13.1784 7.3572C14.2118 7.3572 15.0494 8.19388 15.0494 9.22598V11.0948H16.9204C17.9538 11.0948 18.7914 11.9314 18.7914 12.9635C18.7914 13.9956 17.9538 14.8323 16.9204 14.8323H15.0494V16.7011C15.0494 17.7332 14.2118 18.5699 13.1784 18.5699C12.1451 18.5699 11.3074 17.7332 11.3074 16.7011V14.8323H9.43643C8.40311 14.8323 7.56543 13.9956 7.56543 12.9635C7.56543 11.9314 8.40311 11.0948 9.43643 11.0948H11.3074V9.22598ZM36.0003 8.94349C36.0003 10.0356 35.1139 10.9209 34.0205 10.9209C32.9271 10.9209 32.0408 10.0356 32.0408 8.94349C32.0408 7.85139 32.9271 6.96606 34.0205 6.96606C35.1139 6.96606 36.0003 7.85139 36.0003 8.94349ZM34.0205 19.1783C35.1139 19.1783 36.0003 18.293 36.0003 17.2009C36.0003 16.1088 35.1139 15.2234 34.0205 15.2234C32.9271 15.2234 32.0408 16.1088 32.0408 17.2009C32.0408 18.293 32.9271 19.1783 34.0205 19.1783ZM31.9537 13.0722C31.9537 14.1643 31.0673 15.0496 29.9739 15.0496C28.8805 15.0496 27.9942 14.1643 27.9942 13.0722C27.9942 11.9801 28.8805 11.0948 29.9739 11.0948C31.0673 11.0948 31.9537 11.9801 31.9537 13.0722ZM38.1541 15.0496C39.2475 15.0496 40.1339 14.1643 40.1339 13.0722C40.1339 11.9801 39.2475 11.0948 38.1541 11.0948C37.0607 11.0948 36.1744 11.9801 36.1744 13.0722C36.1744 14.1643 37.0607 15.0496 38.1541 15.0496Z" fill="white"/>
</g>
</svg>
