<svg width="122" height="122" viewBox="0 0 122 122" fill="none" xmlns="http://www.w3.org/2000/svg">
<mask id="mask0_3733_1582" style="mask-type:alpha" maskUnits="userSpaceOnUse" x="0" y="0" width="122" height="122">
<circle cx="61" cy="61" r="61" fill="#EBEBEB"/>
</mask>
<g mask="url(#mask0_3733_1582)">
<rect x="-9.85449" y="-17.5547" width="144.941" height="151.842" fill="#5C90DE"/>
</g>
<path fill-rule="evenodd" clip-rule="evenodd" d="M60.5 69.389C56.1863 69.3954 48.4894 69.8565 42.223 76.19C35.008 83.4822 29.1447 85.3268 25.516 83.132C20.7723 80.2627 21.5591 66.8178 23.626 57.3827C25.7422 47.7224 30.657 38.1311 36.9318 35.8621C41.6579 34.1532 45.509 35.2941 49.9714 36.6161C53.0331 37.5232 56.3827 38.5155 60.5 38.7311C64.6173 38.5155 67.9669 37.5232 71.0286 36.6161C75.4909 35.2941 79.3421 34.1532 84.0682 35.8621C90.343 38.1311 95.2578 47.7224 97.374 57.3827C99.4409 66.8178 100.228 80.2627 95.484 83.132C91.8553 85.3268 85.992 83.4822 78.777 76.19C72.5106 69.8565 64.8137 69.3954 60.5 69.389ZM38.2926 47.4204C38.2926 45.6271 39.748 44.1734 41.5434 44.1734C43.3388 44.1734 44.7942 45.6271 44.7942 47.4204V50.6673H48.0451C49.8405 50.6673 51.2959 52.121 51.2959 53.9143C51.2959 55.7075 49.8405 57.1613 48.0451 57.1613H44.7942V60.4082C44.7942 62.2015 43.3388 63.6552 41.5434 63.6552C39.748 63.6552 38.2926 62.2015 38.2926 60.4082V57.1613H35.0417C33.2463 57.1613 31.7909 55.7075 31.7909 53.9143C31.7909 52.121 33.2463 50.6673 35.0417 50.6673H38.2926V47.4204ZM81.196 46.9295C81.196 48.827 79.6559 50.3653 77.7562 50.3653C75.8564 50.3653 74.3163 48.827 74.3163 46.9295C74.3163 45.032 75.8564 43.4938 77.7562 43.4938C79.6559 43.4938 81.196 45.032 81.196 46.9295ZM77.7562 64.7123C79.6559 64.7123 81.196 63.1741 81.196 61.2766C81.196 59.3791 79.6559 57.8409 77.7562 57.8409C75.8564 57.8409 74.3163 59.3791 74.3163 61.2766C74.3163 63.1741 75.8564 64.7123 77.7562 64.7123ZM74.1651 54.1031C74.1651 56.0006 72.6251 57.5388 70.7253 57.5388C68.8255 57.5388 67.2855 56.0006 67.2855 54.1031C67.2855 52.2056 68.8255 50.6673 70.7253 50.6673C72.6251 50.6673 74.1651 52.2056 74.1651 54.1031ZM84.9383 57.5388C86.838 57.5388 88.3781 56.0006 88.3781 54.1031C88.3781 52.2056 86.838 50.6673 84.9383 50.6673C83.0385 50.6673 81.4984 52.2056 81.4984 54.1031C81.4984 56.0006 83.0385 57.5388 84.9383 57.5388Z" fill="white"/>
</svg>
