<svg width="123" height="122" viewBox="0 0 123 122" fill="none" xmlns="http://www.w3.org/2000/svg">
<mask id="mask0_3733_1584" style="mask-type:alpha" maskUnits="userSpaceOnUse" x="0" y="0" width="123" height="122">
<circle cx="61.3389" cy="61" r="61" fill="#EBEBEB"/>
</mask>
<g mask="url(#mask0_3733_1584)">
<rect x="-9.51562" y="-17.5547" width="144.941" height="151.842" fill="#39AEBE"/>
</g>
<path d="M44.5395 51.0739C42.9629 51.0739 41.6848 52.352 41.6848 53.9286V58.1463H37.4671C35.8905 58.1463 34.6124 59.4244 34.6124 61.001C34.6124 62.5776 35.8905 63.8557 37.4671 63.8557H41.6848V68.0734C41.6848 69.65 42.9629 70.9281 44.5395 70.9281C46.1161 70.9281 47.3942 69.65 47.3942 68.0734V63.8557H51.6119C53.1885 63.8557 54.4666 62.5776 54.4666 61.001C54.4666 59.4244 53.1885 58.1463 51.6119 58.1463H47.3942V53.9286C47.3942 52.352 46.1161 51.0739 44.5395 51.0739Z" fill="white"/>
<path d="M70.575 55.0344C70.575 56.9093 69.0551 58.4292 67.1803 58.4292C65.3054 58.4292 63.7855 56.9093 63.7855 55.0344C63.7855 53.1596 65.3054 51.6397 67.1803 51.6397C69.0551 51.6397 70.575 53.1596 70.575 55.0344Z" fill="white"/>
<path d="M82.5596 55.0344C82.5596 56.9093 81.0397 58.4292 79.1648 58.4292C77.2899 58.4292 75.77 56.9093 75.77 55.0344C75.77 53.1596 77.2899 51.6397 79.1648 51.6397C81.0397 51.6397 82.5596 53.1596 82.5596 55.0344Z" fill="white"/>
<path d="M63.1683 70.3623C65.0431 70.3623 66.563 68.8424 66.563 66.9675C66.563 65.0927 65.0431 63.5728 63.1683 63.5728C61.2934 63.5728 59.7735 65.0927 59.7735 66.9675C59.7735 68.8424 61.2934 70.3623 63.1683 70.3623Z" fill="white"/>
<path d="M78.5476 66.9675C78.5476 68.8424 77.0277 70.3623 75.1528 70.3623C73.2779 70.3623 71.758 68.8424 71.758 66.9675C71.758 65.0927 73.2779 63.5728 75.1528 63.5728C77.0277 63.5728 78.5476 65.0927 78.5476 66.9675Z" fill="white"/>
<path fill-rule="evenodd" clip-rule="evenodd" d="M18.4873 43.2557C18.4873 39.6195 21.435 36.6719 25.0711 36.6719H97.6075C101.244 36.6719 104.191 39.6195 104.191 43.2557V78.7463C104.191 82.3825 101.244 85.3301 97.6075 85.3301H25.0711C21.435 85.3301 18.4873 82.3825 18.4873 78.7463V43.2557ZM29.7003 40.1695H89.0692V81.8325H29.7003V40.1695ZM96.6302 64.7558C98.704 64.7558 100.385 63.0747 100.385 61.001C100.385 58.9273 98.704 57.2462 96.6302 57.2462C94.5565 57.2462 92.8754 58.9273 92.8754 61.001C92.8754 63.0747 94.5565 64.7558 96.6302 64.7558ZM24.6596 50.3024C23.9781 50.3024 23.4251 50.8553 23.4251 51.5368V66.7618C23.4251 67.4433 23.9781 67.9963 24.6596 67.9963C25.3411 67.9963 25.8941 67.4433 25.8941 66.7618V51.5368C25.8941 50.8553 25.3411 50.3024 24.6596 50.3024ZM24.6596 69.2307C23.9781 69.2307 23.4251 69.7837 23.4251 70.4652C23.4251 71.1467 23.9781 71.6996 24.6596 71.6996C25.3411 71.6996 25.8941 71.1467 25.8941 70.4652C25.8941 69.7837 25.3411 69.2307 24.6596 69.2307Z" fill="white"/>
</svg>
