<svg width="122" height="122" viewBox="0 0 122 122" fill="none" xmlns="http://www.w3.org/2000/svg">
<mask id="mask0_3733_1585" style="mask-type:alpha" maskUnits="userSpaceOnUse" x="0" y="0" width="122" height="122">
<circle cx="61" cy="61" r="61" fill="#EBEBEB"/>
</mask>
<g mask="url(#mask0_3733_1585)">
<rect x="-9.85449" y="-17.5547" width="144.941" height="151.842" fill="#FF6062"/>
</g>
<path d="M35.0042 50.1385C33.807 49.2621 32.9659 47.9912 32.6305 46.5556L29 31L44.729 34.5905C46.1813 34.9214 47.4663 35.754 48.3518 36.9373L59.1011 51.2961L55.4699 56.1861L42.5531 40.573L37.2984 39.2055L38.6812 44.4038L54.6341 57.3119L51.1701 61.9753L35.0042 50.1385Z" fill="white"/>
<path d="M64.7355 71.911L69.3828 75.314L63.0211 80.5108C63.6399 81.8573 64.8058 83.0949 65.9403 84.0529C66.0946 84.1829 66.2482 84.3083 66.3994 84.4277C66.5347 84.535 66.6684 84.6362 66.799 84.733L67.1543 84.9898C67.5859 85.2936 67.974 85.5384 68.2766 85.7091L73.8086 79.1433L84.0422 92C84.2867 92 84.5342 91.9728 84.7817 91.9229L84.9513 91.8867L85.1301 91.8383L85.367 91.7658C85.7459 91.6373 86.1172 91.4681 86.4671 91.2777C86.843 91.0722 87.1929 90.844 87.5015 90.6203C87.9095 90.3242 88.2426 90.034 88.4672 89.8119C89.2052 89.0835 90.6797 87.1855 90.6797 85.4356L77.6812 75.314L84.3188 69.8437C83.5807 68.5668 81.4966 65.7395 79.0641 64.6454L73.8086 70.9378L71.0941 67.3126L64.7355 71.911Z" fill="white"/>
<path fill-rule="evenodd" clip-rule="evenodd" d="M78.2695 34.5889C76.8187 34.9214 75.5337 35.754 74.6482 36.9373L49.1914 70.9378L43.9367 64.6454C42.4034 65.3345 41.0083 66.7127 40.0014 67.9578C39.4108 68.6877 38.954 69.3723 38.6812 69.8437L45.3195 75.314L32.3195 85.4356C32.3195 85.8693 32.4097 86.3136 32.5571 86.7458C32.6855 87.1205 32.8574 87.4862 33.0499 87.8323C33.2577 88.204 33.4884 88.5516 33.7153 88.8568C34.0148 89.2588 34.3074 89.5897 34.532 89.8119C35.2693 90.5402 37.1876 92 38.9578 92L49.1914 79.1433L54.7234 85.7091C56.0146 84.9793 58.8727 82.9181 59.9789 80.5108L53.6172 75.314L87.9951 50.1385C88.3633 49.8695 88.6979 49.5628 88.9944 49.2258C89.6621 48.4657 90.1373 47.55 90.3695 46.5556L94 31L78.2695 34.5889ZM84.3188 44.4038L63.0211 61.6368L80.4469 40.573L85.7016 39.2055L84.3188 44.4038Z" fill="white"/>
</svg>
