<svg width="122" height="122" viewBox="0 0 122 122" fill="none" xmlns="http://www.w3.org/2000/svg">
<mask id="mask0_3733_1586" style="mask-type:alpha" maskUnits="userSpaceOnUse" x="0" y="0" width="122" height="122">
<circle cx="61" cy="61" r="61" fill="#EBEBEB"/>
</mask>
<g mask="url(#mask0_3733_1586)">
<rect x="-9.85449" y="-17.5547" width="144.941" height="151.842" fill="#5AB880"/>
</g>
<path fill-rule="evenodd" clip-rule="evenodd" d="M41.5057 23C39.0173 23 37 25.0314 37 27.5373V94.4627C37 96.9686 39.0173 99 41.5057 99H70.2299C78.9395 99 86 91.89 86 83.1194V27.5373C86 25.0314 83.9827 23 81.4943 23H41.5057ZM46.5747 31.5075C45.0194 31.5075 43.7586 32.7771 43.7586 34.3433V53.0597C43.7586 54.6259 45.0194 55.8955 46.5747 55.8955H76.4253C77.9806 55.8955 79.2414 54.6259 79.2414 53.0597V34.3433C79.2414 32.7771 77.9806 31.5075 76.4253 31.5075H46.5747ZM48.8276 70.0746C48.8276 69.4482 49.3319 68.9403 49.954 68.9403H54.4598C55.0819 68.9403 55.5862 69.4482 55.5862 70.0746V74.0448H59.5287C60.1509 74.0448 60.6552 74.5526 60.6552 75.1791V79.7164C60.6552 80.3429 60.1509 80.8507 59.5287 80.8507H55.5862V84.8209C55.5862 85.4474 55.0819 85.9552 54.4598 85.9552H49.954C49.3319 85.9552 48.8276 85.4474 48.8276 84.8209V80.8507H44.8851C44.2629 80.8507 43.7586 80.3429 43.7586 79.7164V75.1791C43.7586 74.5526 44.2629 74.0448 44.8851 74.0448H48.8276V70.0746ZM79.2414 72.6269C79.2414 74.6629 77.6023 76.3134 75.5805 76.3134C73.5586 76.3134 71.9195 74.6629 71.9195 72.6269C71.9195 70.5908 73.5586 68.9403 75.5805 68.9403C77.6023 68.9403 79.2414 70.5908 79.2414 72.6269ZM69.3851 86.5224C71.4069 86.5224 73.046 84.8719 73.046 82.8358C73.046 80.7998 71.4069 79.1493 69.3851 79.1493C67.3632 79.1493 65.7241 80.7998 65.7241 82.8358C65.7241 84.8719 67.3632 86.5224 69.3851 86.5224Z" fill="white"/>
</svg>
