<svg width="122" height="122" viewBox="0 0 122 122" fill="none" xmlns="http://www.w3.org/2000/svg">
<circle cx="61" cy="61" r="61" fill="#646A6B"/>
<path d="M33.3153 66.3119C33.3153 66.5552 33.3762 66.7985 33.437 67.0418C33.5588 66.981 33.6197 66.9202 33.6805 66.7377C34.2893 65.4603 34.9589 64.2437 35.7503 63.0879C37.0896 61.0198 38.6115 59.0732 40.316 57.3092C41.1074 56.3968 42.0205 55.606 42.9945 54.9369C43.725 54.3286 44.6381 53.9028 45.5513 53.7203C46.7079 53.5378 47.7428 54.0853 47.9254 55.3018C47.9863 55.4843 47.9863 55.7276 47.9863 55.9101V73.4288C47.9863 74.3413 47.1949 75.1321 46.2209 75.0712C45.673 75.1321 45.0643 75.0712 44.5164 74.8887C44.4555 74.8279 44.2729 74.8279 44.212 74.8887C44.2424 74.9496 44.2729 74.9952 44.3033 75.0408C44.3338 75.0864 44.3642 75.1321 44.3946 75.1929C44.7599 75.6795 45.186 76.1661 45.6121 76.592C47.3775 78.356 49.4473 79.755 51.7606 80.7283C54.2565 81.8232 56.8741 82.614 59.5526 83.1006C60.2831 83.2223 61.0745 83.344 61.805 83.4048L67.223 77.6869L72.3365 81.9449C72.4256 81.9449 72.4821 81.9123 72.5538 81.871C72.58 81.8558 72.6083 81.8395 72.6409 81.8232C73.3105 81.4583 73.9801 81.0325 74.5889 80.5458C77.2065 78.5993 79.5807 76.2878 81.5287 73.6722C83.1115 71.604 84.5116 69.4141 85.6683 67.0418C85.79 66.9202 85.79 66.7985 85.79 66.6768C85.6682 66.7377 85.6074 66.7985 85.5465 66.8593C85.2421 67.1331 84.9377 67.422 84.6334 67.7109C84.329 67.9999 84.0246 68.2888 83.7202 68.5625C82.5636 69.6575 81.2852 70.5091 79.8851 71.239C79.0937 71.6648 78.1806 71.8473 77.3283 71.7865C76.7804 71.7865 76.2934 71.604 75.9282 71.239C75.7455 71.1174 75.6847 70.9957 75.6847 70.8132C75.6847 70.6003 75.6694 70.4026 75.6542 70.2049C75.639 70.0072 75.6238 69.8095 75.6238 69.5966L75.6181 69.4253C75.5592 67.6612 75.502 65.9505 75.502 64.1829C75.4412 62.1147 75.3803 54.8152 75.4412 53.2945C75.4412 52.1996 75.4412 51.0438 75.502 49.9489C75.502 49.4623 75.6238 48.9148 75.9282 48.489C76.1412 48.1849 76.3391 47.8807 76.5369 47.5766C76.7348 47.2724 76.9326 46.9683 77.1457 46.6641C78.6676 44.4743 80.3112 42.4061 82.0157 40.3988C82.1375 40.3379 82.1983 40.2163 82.1375 40.0946C76.6587 41.1895 71.606 43.9268 67.71 47.9416C67.0403 47.5157 66.3098 47.2724 65.5184 47.1508C64.7271 46.9683 63.9357 46.9683 63.1443 47.0291C63.2052 47.1508 63.266 47.2116 63.3878 47.2724C64.9706 48.489 65.9446 50.0706 65.9446 52.0779V70.3874C65.9446 70.5699 65.8837 70.7524 65.7011 70.874C65.3358 71.1174 65.0314 71.3607 64.7271 71.604C63.6922 72.3948 62.5355 72.9422 61.318 73.3072C59.7353 73.733 58.0308 73.003 57.3002 71.5432C57.2394 71.3607 57.1785 71.1782 57.1785 70.9957V48.6715C57.1785 48.5498 57.1785 48.3674 57.1176 48.2457C56.935 48.3065 56.8132 48.3674 56.6915 48.4282L56.6306 48.489C55.9001 48.854 55.0479 48.489 54.6826 47.7591C54.5608 47.5158 54.4391 47.2724 54.3782 46.9683C53.8912 44.9609 54.3173 42.8319 55.5349 41.1895C56.448 39.973 57.5437 38.9389 58.7613 38.1481C58.883 38.0873 58.9439 38.0264 59.0048 37.9048H58.9439C58.8726 37.9048 58.8221 37.9257 58.7804 37.943C58.7508 37.9552 58.7256 37.9656 58.7004 37.9656C56.2654 38.6347 53.8912 39.608 51.6997 40.8246C48.8994 42.467 46.2818 44.4743 43.9076 46.7858C42.2031 48.4282 40.4986 50.1922 38.9767 52.0171C37.2113 54.0244 35.8112 56.3359 34.7763 58.7691C33.7414 61.1414 33.2544 63.6962 33.3153 66.3119Z" fill="white"/>
<path fill-rule="evenodd" clip-rule="evenodd" d="M24.0007 59.9244C24.1224 39.6072 40.9849 22.9398 61.6217 23.0007C82.3803 23.0615 98.9993 40.5197 98.9993 60.2286C99.1211 80.6674 82.4412 98.0648 61.3782 98.004C40.6806 97.9432 23.8789 81.2757 24.0007 59.9244ZM61.2565 92.8334C79.2148 93.0159 93.8858 78.4776 94.0684 60.5327C94.0684 42.9529 79.6409 27.8062 61.5 27.7454C43.8461 27.8062 29.0533 42.4662 29.1142 60.1678C28.9925 77.9301 43.6635 92.7118 61.2565 92.8334Z" fill="white"/>
</svg>
