<svg width="154" height="31" viewBox="0 0 154 31" fill="none" xmlns="http://www.w3.org/2000/svg">
<path d="M5.76819 0.602107H11.394L17.1621 29.8967H12.2841L11.1447 23.1336H6.12425L4.94925 29.8967H0L5.76819 0.602107ZM10.575 19.734L8.61668 7.43752L6.65834 19.734H10.575Z" fill="white"/>
<path d="M20.0626 0.602107H27.0058C30.0442 0.602107 32.3111 1.19282 33.8066 2.37425C35.3021 3.53157 36.0498 5.53276 36.0498 8.37784C36.0498 10.2344 35.7768 11.7534 35.2308 12.9348C34.7086 14.0921 33.7947 14.936 32.4892 15.4664L36.5127 29.8967H31.243L27.7892 16.4791H25.2967V29.8967H20.0626V0.602107ZM26.9702 13.1518C28.4657 13.1518 29.522 12.8022 30.1392 12.103C30.7801 11.4037 31.1005 10.2585 31.1005 8.66717C31.1005 7.12408 30.8157 6.00293 30.246 5.30371C29.7 4.6045 28.7031 4.25489 27.2551 4.25489H25.2967V13.1518H26.9702Z" fill="white"/>
<path d="M47.1105 30.2946C44.3807 30.2946 42.4105 29.4386 41.1999 27.7268C40.013 25.9908 39.4196 23.4953 39.4196 20.2404V10.4031C39.4196 7.05175 40.0367 4.53217 41.2711 2.84441C42.5054 1.13254 44.6299 0.276611 47.6446 0.276611C50.4931 0.276611 52.5345 0.999935 53.7688 2.44658C55.0032 3.86912 55.6203 5.99087 55.6203 8.81183V10.3308H50.5999V8.66717C50.5999 7.60629 50.5287 6.76242 50.3862 6.13554C50.2676 5.50866 49.9946 5.02644 49.5673 4.68889C49.1638 4.35134 48.5466 4.18256 47.7158 4.18256C46.8375 4.18256 46.1847 4.39956 45.7575 4.83355C45.3302 5.26755 45.0453 5.8221 44.9029 6.4972C44.7842 7.1723 44.7249 8.05234 44.7249 9.13733V21.3977C44.7249 23.0613 44.9385 24.303 45.3658 25.1228C45.8168 25.9426 46.6476 26.3524 47.8582 26.3524C49.0451 26.3524 49.864 25.9184 50.315 25.0505C50.7898 24.1825 51.0272 22.8805 51.0272 21.1445V18.3959H47.9294V15.0324H55.7628V29.8967H52.3446L51.9885 27.0396C51.0865 29.2096 49.4605 30.2946 47.1105 30.2946Z" fill="white"/>
<path d="M59.7718 0.602107H71.8779V4.36339H65.0059V12.7901H70.418V16.5152H65.0059V26.2439H71.9491V29.8967H59.7718V0.602107Z" fill="white"/>
<path d="M75.0018 0.602107H78.6692L85.6836 17.3109V0.602107H90.0275V29.8967H86.5381L79.4881 12.3923V29.8967H75.0018V0.602107Z" fill="white"/>
<path d="M97.2884 4.54422H92.6952V0.602107H107.044V4.54422H102.558V29.8967H97.2884V4.54422Z" fill="white"/>
<path d="M109.811 0.602107H115.01V29.8967H109.811V0.602107Z" fill="white"/>
<path d="M127.237 30.2946C124.246 30.2946 122.121 29.4507 120.863 27.7629C119.629 26.0511 119.012 23.64 119.012 20.5297V10.0777C119.012 6.87091 119.629 4.43572 120.863 2.77208C122.098 1.10843 124.222 0.276611 127.237 0.276611C130.061 0.276611 132.067 0.999935 133.254 2.44658C134.441 3.89323 135.034 5.97881 135.034 8.70334V11.1626H129.978V8.631C129.978 7.59424 129.931 6.78653 129.836 6.20787C129.741 5.6051 129.492 5.12288 129.088 4.76122C128.708 4.37545 128.103 4.18256 127.272 4.18256C126.418 4.18256 125.777 4.3875 125.35 4.79739C124.922 5.18316 124.637 5.7136 124.495 6.3887C124.376 7.03969 124.317 7.89562 124.317 8.9565V21.6508C124.317 23.3145 124.531 24.52 124.958 25.2675C125.385 25.9908 126.157 26.3524 127.272 26.3524C128.079 26.3524 128.673 26.1595 129.053 25.7738C129.456 25.388 129.705 24.8817 129.8 24.2548C129.919 23.6038 129.978 22.7479 129.978 21.687V19.0469H135.034V21.3977C135.034 24.2186 134.453 26.4127 133.29 27.9799C132.127 29.523 130.109 30.2946 127.237 30.2946Z" fill="white"/>
<path d="M145.967 30.2946C143.356 30.2946 141.397 29.5471 140.092 28.0522C138.81 26.5574 138.11 24.3271 137.991 21.3615L142.513 20.4573C142.584 22.3139 142.869 23.7364 143.368 24.725C143.89 25.6894 144.697 26.1716 145.789 26.1716C146.596 26.1716 147.189 25.9305 147.569 25.4483C147.973 24.942 148.175 24.2669 148.175 23.423C148.175 22.2657 147.913 21.2892 147.391 20.4935C146.893 19.6737 146.097 18.7816 145.006 17.8172L141.374 14.5984C140.258 13.634 139.415 12.5972 138.846 11.4881C138.3 10.379 138.027 9.05294 138.027 7.50985C138.027 5.21933 138.68 3.44718 139.985 2.19342C141.314 0.915548 143.142 0.276611 145.468 0.276611C147.961 0.276611 149.741 0.999935 150.809 2.44658C151.901 3.86912 152.53 5.79798 152.696 8.23317L148.175 9.02883C148.103 7.43752 147.878 6.24403 147.498 5.44838C147.142 4.62861 146.43 4.21873 145.362 4.21873C144.602 4.21873 144.009 4.48395 143.581 5.01438C143.154 5.52071 142.94 6.1717 142.94 6.96736C142.94 7.90768 143.118 8.70334 143.475 9.35433C143.854 9.98121 144.46 10.6563 145.29 11.3796L148.887 14.5984C150.24 15.7799 151.296 17.0457 152.056 18.3959C152.815 19.7461 153.195 21.3133 153.195 23.0975C153.195 24.4959 152.886 25.7376 152.269 26.8226C151.676 27.9076 150.833 28.7635 149.741 29.3904C148.649 29.9932 147.391 30.2946 145.967 30.2946Z" fill="white"/>
</svg>
