<svg width="65" height="40" viewBox="0 0 65 40" fill="none" xmlns="http://www.w3.org/2000/svg">
<path opacity="0.4" fill-rule="evenodd" clip-rule="evenodd" d="M50.0405 1.05871C52.8495 1.77831 55.4604 3.0191 57.7433 4.8457C62.3145 8.49901 64.9254 14.0481 64.9299 19.86C64.9299 25.672 62.319 31.2164 57.7478 34.8742C55.4649 36.7008 52.854 38.0063 50.045 38.6612C48.4161 39.0534 46.7837 39.2517 45.1503 39.3162H24.0618C22.8852 39.3162 21.6446 39.3808 20.4041 39.3162C18.7752 39.2471 17.1427 39.0534 15.5094 38.6612C12.7003 37.9416 10.0895 36.7008 7.80659 34.8742C3.30022 31.2164 0.624512 25.7365 0.624512 19.86C0.624512 14.0481 3.23536 8.49901 7.80659 4.8457C10.0895 3.0191 12.7003 1.71379 15.5094 1.05871C17.1382 0.666699 18.7707 0.468273 20.4041 0.403745H41.4881C41.8755 0.403745 42.2701 0.396763 42.6692 0.389669C43.4827 0.375142 44.3143 0.360389 45.1458 0.403745C46.7747 0.472891 48.4071 0.666699 50.0405 1.05871ZM46.3819 26.2578C47.3648 26.124 48.3423 25.7319 49.1909 25.1461C50.9531 23.9699 52.0009 22.0141 51.9315 19.9246C51.9315 17.8351 50.8891 15.8793 49.1909 14.703C48.3423 14.1126 47.4251 13.7205 46.3819 13.5914C45.3395 13.4623 44.3575 13.4623 43.3152 13.4623H22.1653C21.123 13.4623 20.0761 13.4623 19.0986 13.5914C18.1157 13.7251 17.1382 14.1172 16.2896 14.703C14.5914 15.8793 13.549 17.8351 13.549 19.9246C13.549 22.0141 14.5914 23.9699 16.2896 25.1461C17.1382 25.7365 18.0554 26.1286 19.0986 26.2578C20.141 26.387 21.123 26.387 22.1653 26.387H43.3152C43.9557 26.387 44.5972 26.387 45.2233 26.3571C45.617 26.3383 46.0044 26.3077 46.3819 26.2578Z" fill="white"/>
</svg>
