<svg width="53" height="53" viewBox="0 0 53 53" fill="none" xmlns="http://www.w3.org/2000/svg">
<mask id="mask0_3750_1580" style="mask-type:alpha" maskUnits="userSpaceOnUse" x="0" y="0" width="53" height="53">
<circle cx="26.5" cy="26.5" r="26.5" fill="#EC5188"/>
</mask>
<g mask="url(#mask0_3750_1580)">
<rect x="-4.28125" y="-7.625" width="62.9661" height="65.964" fill="#EC5188"/>
</g>
<path d="M27.2615 14.0369C27.3152 14.0524 27.3679 14.0727 27.4189 14.0979L40.4741 20.5554C41.1753 20.9022 41.1753 21.9022 40.4741 22.249L29.9469 27.456L26.9703 28.8039C26.9565 28.8035 26.9427 28.8028 26.9289 28.8017C26.9168 28.8008 26.9046 28.7996 26.8925 28.7983L25.091 27.9694L13.5259 22.249C12.8247 21.9022 12.8247 20.9022 13.5259 20.5554L26.5811 14.0979C26.6471 14.0653 26.716 14.0408 26.7863 14.0245C26.9429 13.9881 27.1065 13.9923 27.2615 14.0369Z" fill="white"/>
<path fill-rule="evenodd" clip-rule="evenodd" d="M19.0001 27.3749L18.6689 36.2516C18.7059 36.2974 18.7581 36.3558 18.8307 36.4262C19.1494 36.7353 19.7001 37.1083 20.5221 37.4636C22.1561 38.1697 24.4982 38.6497 27.1719 38.6497C29.8455 38.6497 32.1877 38.1697 33.8216 37.4636C34.6436 37.1083 35.1943 36.7353 35.5131 36.4262C35.5857 36.3558 35.6378 36.2974 35.6748 36.2516L35.3349 27.2095L29.9473 29.8743L26.9706 31.2222C26.9568 31.2218 26.943 31.2211 26.9292 31.22C26.9171 31.2191 26.905 31.218 26.8928 31.2166L25.0914 30.3877L19.0001 27.3749Z" fill="white"/>
</svg>
