<svg width="53" height="53" viewBox="0 0 53 53" fill="none" xmlns="http://www.w3.org/2000/svg">
<circle cx="26.5" cy="26.5" r="26.5" fill="#FF6062"/>
<circle cx="26.5" cy="26.5" r="16.5" stroke="white" stroke-width="2"/>
<path d="M21.6151 18.9261H27.5551C29.1097 18.9261 30.3051 19.3588 31.1411 20.2241C31.9771 21.0748 32.3951 22.1748 32.3951 23.5241C32.3951 24.8148 32.0064 25.8341 31.2291 26.5821C30.6864 27.0954 30.0117 27.4328 29.2051 27.5941L33.8031 33.6001H29.0731L25.4211 27.9681V33.6001H21.6151V18.9261ZM25.4211 21.8741V25.5041H26.1471C26.9684 25.5041 27.5844 25.3061 27.9951 24.9101C28.3177 24.5874 28.4791 24.1768 28.4791 23.6781C28.4791 23.1648 28.3104 22.7541 27.9731 22.4461C27.5917 22.0648 26.9831 21.8741 26.1471 21.8741H25.4211Z" fill="white"/>
</svg>
