<svg width="53" height="53" viewBox="0 0 53 53" fill="none" xmlns="http://www.w3.org/2000/svg">
<mask id="mask0_3750_1581" style="mask-type:alpha" maskUnits="userSpaceOnUse" x="0" y="0" width="53" height="53">
<circle cx="26.5" cy="26.5" r="26.5" fill="#EC5188"/>
</mask>
<g mask="url(#mask0_3750_1581)">
<rect x="-4.28125" y="-7.62512" width="62.9661" height="65.964" fill="#FFC266"/>
</g>
<path fill-rule="evenodd" clip-rule="evenodd" d="M26.5 30.3345C24.8754 30.337 21.9765 30.5158 19.6164 32.9716C16.8991 35.7992 14.6909 36.5145 13.3242 35.6634C11.5376 34.5508 11.834 29.3375 12.6124 25.679C13.4094 21.9332 15.2604 18.2141 17.6237 17.3343C19.4036 16.6717 20.8541 17.1141 22.5347 17.6267C23.6878 17.9784 24.9493 18.3632 26.5 18.4467C28.0507 18.3632 29.3122 17.9784 30.4653 17.6267C32.1459 17.1141 33.5964 16.6717 35.3763 17.3343C37.7396 18.2141 39.5906 21.9332 40.3876 25.679C41.166 29.3375 41.4624 34.5508 39.6758 35.6634C38.3091 36.5145 36.1009 35.7992 33.3836 32.9716C31.0235 30.5158 28.1246 30.337 26.5 30.3345ZM18.1362 21.8161C18.1362 21.1207 18.6843 20.557 19.3605 20.557C20.0367 20.557 20.5848 21.1207 20.5848 21.8161V23.0751H21.8092C22.4854 23.0751 23.0335 23.6388 23.0335 24.3341C23.0335 25.0295 22.4854 25.5931 21.8092 25.5931H20.5848V26.8522C20.5848 27.5475 20.0367 28.1112 19.3605 28.1112C18.6843 28.1112 18.1362 27.5475 18.1362 26.8522V25.5931H16.9118C16.2356 25.5931 15.6875 25.0295 15.6875 24.3341C15.6875 23.6388 16.2356 23.0751 16.9118 23.0751H18.1362V21.8161ZM34.2946 21.6257C34.2946 22.3615 33.7146 22.958 32.9991 22.958C32.2836 22.958 31.7036 22.3615 31.7036 21.6257C31.7036 20.89 32.2836 20.2935 32.9991 20.2935C33.7146 20.2935 34.2946 20.89 34.2946 21.6257ZM32.9991 28.5211C33.7146 28.5211 34.2946 27.9247 34.2946 27.1889C34.2946 26.4531 33.7146 25.8567 32.9991 25.8567C32.2836 25.8567 31.7036 26.4531 31.7036 27.1889C31.7036 27.9247 32.2836 28.5211 32.9991 28.5211ZM31.6466 24.4073C31.6466 25.1431 31.0666 25.7395 30.3511 25.7395C29.6356 25.7395 29.0556 25.1431 29.0556 24.4073C29.0556 23.6715 29.6356 23.0751 30.3511 23.0751C31.0666 23.0751 31.6466 23.6715 31.6466 24.4073ZM35.704 25.7395C36.4195 25.7395 36.9995 25.1431 36.9995 24.4073C36.9995 23.6715 36.4195 23.0751 35.704 23.0751C34.9885 23.0751 34.4085 23.6715 34.4085 24.4073C34.4085 25.1431 34.9885 25.7395 35.704 25.7395Z" fill="white"/>
</svg>
