<svg width="53" height="53" viewBox="0 0 53 53" fill="none" xmlns="http://www.w3.org/2000/svg">
<mask id="mask0_3334_2577" style="mask-type:alpha" maskUnits="userSpaceOnUse" x="0" y="0" width="53" height="53">
<circle cx="26.5" cy="26.5" r="26.5" fill="#EC5188"/>
</mask>
<g mask="url(#mask0_3334_2577)">
<rect x="-4.28125" y="-7.625" width="62.9661" height="65.964" fill="#5AB880"/>
</g>
<path d="M39.9773 19.4732C41.331 19.8047 42.1725 21.2149 41.9701 22.6823L41.7769 24.0826C37.4786 22.9435 32.4175 22.2865 27.0001 22.2865C21.5826 22.2865 16.5215 22.9436 12.2231 24.0827L12.0299 22.6824C11.8275 21.215 12.6691 19.8048 14.0228 19.4732C17.8515 18.5356 22.2806 18 27.0001 18C31.7196 18 36.1486 18.5355 39.9773 19.4732Z" fill="white"/>
<path d="M41.4514 26.4422L40.7278 31.6879C40.4645 33.5964 39.0504 35 37.3908 35H31.6712C30.851 35 30.0587 34.6526 29.4422 34.0224L27.7723 32.2982C27.3416 31.8536 26.6584 31.8536 26.2278 32.2982L24.5579 34.0224C23.9413 34.6526 23.149 35 22.3288 35H16.6092C14.9496 35 13.5356 33.5964 13.2723 31.6879L12.5486 26.4422C16.6822 25.3242 21.6358 24.6598 27.0001 24.6598C32.3643 24.6598 37.3179 25.3242 41.4514 26.4422Z" fill="white"/>
</svg>
