<svg width="53" height="53" viewBox="0 0 53 53" fill="none" xmlns="http://www.w3.org/2000/svg">
<circle cx="26.5" cy="26.5" r="26.5" fill="#B289E5"/>
<circle cx="26.5" cy="26.5" r="16.5" stroke="white" stroke-width="2"/>
<path d="M21.5007 20.326H27.4407C28.9953 20.326 30.1907 20.7587 31.0267 21.624C31.8627 22.4747 32.2807 23.5747 32.2807 24.924C32.2807 26.2147 31.892 27.234 31.1147 27.982C30.572 28.4953 29.8973 28.8327 29.0907 28.994L33.6887 35H28.9587L25.3067 29.368V35H21.5007V20.326ZM25.3067 23.274V26.904H26.0327C26.854 26.904 27.47 26.706 27.8807 26.31C28.2033 25.9873 28.3647 25.5767 28.3647 25.078C28.3647 24.5647 28.196 24.154 27.8587 23.846C27.4773 23.4647 26.8687 23.274 26.0327 23.274H25.3067Z" fill="white"/>
</svg>
