<svg width="67" height="66" viewBox="0 0 67 66" fill="none" xmlns="http://www.w3.org/2000/svg">
<path opacity="0.4" fill-rule="evenodd" clip-rule="evenodd" d="M0.5162 32.3119C0.622697 14.5411 15.3726 -0.037436 33.4239 0.0157702C51.5817 0.0689764 66.1186 15.3392 66.1186 32.578C66.2251 50.4552 51.6349 65.6722 33.2109 65.619C15.1063 65.5658 0.409703 50.9873 0.5162 32.3119ZM33.1044 61.0965C48.8127 61.2561 61.6457 48.5398 61.8054 32.844C61.8054 17.4674 49.1855 4.21906 33.3174 4.16585C17.8753 4.21906 4.93584 17.0417 4.98909 32.5247C4.88259 48.061 17.7155 60.9901 33.1044 61.0965ZM8.6643 37.8981C8.6643 38.111 8.71755 38.3238 8.7708 38.5366C8.87729 38.4834 8.93054 38.4302 8.98379 38.2706C9.51628 37.1532 10.102 36.0891 10.7942 35.0782C11.9657 33.2692 13.2969 31.5666 14.7879 30.0237C15.4801 29.2256 16.2788 28.5339 17.1308 27.9486C17.7698 27.4166 18.5685 27.0441 19.3673 26.8845C20.379 26.7249 21.2842 27.2037 21.444 28.2679C21.4972 28.4275 21.4972 28.6403 21.4972 28.7999V44.1232C21.4972 44.9213 20.805 45.613 19.953 45.5598C19.4738 45.613 18.9413 45.5598 18.462 45.4002C18.4088 45.347 18.249 45.347 18.1958 45.4002C18.2224 45.4534 18.249 45.4933 18.2757 45.5332C18.3023 45.5731 18.3289 45.613 18.3555 45.6662C18.675 46.0918 19.0478 46.5175 19.4205 46.8899C20.9647 48.4329 22.7752 49.6566 24.7986 50.5079C26.9818 51.4656 29.2715 52.1573 31.6144 52.583C32.2534 52.6894 32.9457 52.7958 33.5846 52.849L38.3238 47.8476L42.7967 51.572C42.8746 51.572 42.924 51.5435 42.9867 51.5074C43.0097 51.4941 43.0344 51.4799 43.0629 51.4656C43.6486 51.1464 44.2344 50.774 44.7669 50.3483C47.0565 48.6457 49.1332 46.6239 50.8372 44.336C52.2217 42.527 53.4464 40.6116 54.4581 38.5366C54.5646 38.4302 54.5646 38.3238 54.5646 38.2174C54.4581 38.2706 54.4049 38.3238 54.3516 38.377C54.0854 38.6164 53.8191 38.8691 53.5529 39.1219C53.2866 39.3746 53.0204 39.6273 52.7541 39.8667C51.7424 40.8245 50.6242 41.5693 49.3995 42.2078C48.7073 42.5802 47.9085 42.7399 47.163 42.6867C46.6838 42.6867 46.2578 42.527 45.9383 42.2078C45.7786 42.1014 45.7253 41.995 45.7253 41.8354C45.7253 41.6491 45.712 41.4762 45.6987 41.3033C45.6854 41.1304 45.6721 40.9575 45.6721 40.7712L45.6671 40.6216C45.6156 39.0785 45.5656 37.5822 45.5656 36.0359C45.5123 34.2269 45.4591 27.8422 45.5123 26.5121C45.5123 25.5544 45.5123 24.5434 45.5656 23.5857C45.5656 23.1601 45.6721 22.6812 45.9383 22.3088C46.1247 22.0428 46.2978 21.7767 46.4708 21.5107C46.6439 21.2447 46.8169 20.9786 47.0033 20.7126C48.3345 18.7972 49.7722 16.9882 51.2632 15.2324C51.3697 15.1792 51.4229 15.0728 51.3697 14.9664C46.5773 15.9241 42.1577 18.3184 38.7498 21.8299C38.164 21.4575 37.525 21.2447 36.8328 21.1383C36.1406 20.9787 35.4483 20.9787 34.7561 21.0319C34.8094 21.1383 34.8626 21.1915 34.9691 21.2447C36.3536 22.3088 37.2056 23.6922 37.2056 25.4479V41.4629C37.2056 41.6225 37.1523 41.7822 36.9926 41.8886C36.6731 42.1014 36.4068 42.3142 36.1406 42.527C35.2354 43.2187 34.2236 43.6976 33.1587 44.0168C31.7742 44.3892 30.2832 43.7508 29.6442 42.4738C29.591 42.3142 29.5378 42.1546 29.5378 41.995V22.4684C29.5378 22.362 29.5378 22.2024 29.4845 22.096C29.3248 22.1492 29.2183 22.2024 29.1118 22.2556L29.0585 22.3088C28.4195 22.628 27.6741 22.3088 27.3546 21.6703C27.2481 21.4575 27.1416 21.2447 27.0883 20.9787C26.6623 19.2229 27.0351 17.3607 28.1 15.9241C28.8988 14.86 29.8572 13.9555 30.9222 13.2638C31.0287 13.2106 31.082 13.1574 31.1352 13.051H31.082C31.0196 13.051 30.9755 13.0692 30.9389 13.0844C30.9131 13.0951 30.891 13.1042 30.869 13.1042C28.739 13.6894 26.6623 14.5407 24.7454 15.6049C22.2959 17.0414 20.0063 18.7972 17.9296 20.819C16.4386 22.2556 14.9476 23.7986 13.6164 25.3947C12.0722 27.1505 10.8475 29.1724 9.94227 31.3006C9.03704 33.3756 8.61105 35.6103 8.6643 37.8981Z" fill="white"/>
</svg>
