<svg width="316" height="33" viewBox="0 0 316 33" fill="none" xmlns="http://www.w3.org/2000/svg">
<path d="M190.255 6.11853V10.3026C189.707 10.6982 189.121 10.9949 188.497 11.1927C187.879 11.3854 187.199 11.4818 186.459 11.4818C185.581 11.4818 184.79 11.3474 184.085 11.0786C183.38 10.8047 182.777 10.4243 182.274 9.93747C181.777 9.44552 181.395 8.85721 181.126 8.17254C180.857 7.48787 180.723 6.73473 180.723 5.91313C180.723 5.08138 180.852 4.32317 181.111 3.6385C181.374 2.95384 181.747 2.36806 182.229 1.88119C182.711 1.38924 183.296 1.00887 183.986 0.74007C184.676 0.471273 185.447 0.336875 186.299 0.336875C186.73 0.336875 187.131 0.369841 187.501 0.435772C187.871 0.496632 188.213 0.587921 188.528 0.70964C188.842 0.826287 189.134 0.970829 189.403 1.14326C189.671 1.31063 189.923 1.50081 190.156 1.71382L189.737 2.38328C189.671 2.48471 189.585 2.55064 189.479 2.58107C189.377 2.60643 189.263 2.58107 189.136 2.505C189.015 2.43399 188.875 2.34778 188.718 2.24634C188.561 2.14491 188.368 2.04855 188.14 1.95726C187.917 1.8609 187.65 1.77975 187.341 1.71382C187.037 1.64789 186.674 1.61493 186.253 1.61493C185.64 1.61493 185.084 1.71636 184.587 1.91922C184.09 2.11702 183.667 2.40356 183.317 2.77886C182.967 3.14909 182.698 3.60047 182.51 4.13299C182.323 4.66044 182.229 5.25382 182.229 5.91313C182.229 6.5978 182.325 7.21147 182.518 7.75413C182.716 8.29172 182.995 8.75071 183.355 9.13108C183.72 9.50638 184.161 9.79293 184.678 9.99072C185.196 10.1885 185.776 10.2874 186.421 10.2874C186.928 10.2874 187.377 10.2316 187.767 10.12C188.163 10.0034 188.548 9.84364 188.923 9.64078V7.24443H187.227C187.131 7.24443 187.052 7.21654 186.991 7.16075C186.935 7.10496 186.907 7.0365 186.907 6.95535V6.11853H190.255Z" fill="white"/>
<path d="M196.326 7.89107C195.702 7.91135 195.17 7.96207 194.728 8.04321C194.292 8.11929 193.935 8.22072 193.656 8.34751C193.382 8.4743 193.182 8.62392 193.055 8.79635C192.933 8.96879 192.872 9.16151 192.872 9.37452C192.872 9.57738 192.905 9.75235 192.971 9.89943C193.037 10.0465 193.126 10.1682 193.237 10.2646C193.354 10.3559 193.488 10.4243 193.641 10.47C193.798 10.5106 193.965 10.5308 194.143 10.5308C194.381 10.5308 194.599 10.508 194.797 10.4624C194.995 10.4117 195.18 10.3407 195.352 10.2494C195.53 10.1581 195.697 10.049 195.854 9.92225C196.017 9.79546 196.174 9.65092 196.326 9.48863V7.89107ZM191.952 4.74158C192.378 4.33078 192.837 4.02395 193.329 3.82108C193.821 3.61822 194.366 3.51679 194.964 3.51679C195.395 3.51679 195.778 3.58779 196.113 3.72979C196.448 3.8718 196.729 4.06959 196.957 4.32317C197.186 4.57676 197.358 4.88359 197.475 5.24368C197.591 5.60376 197.65 5.99935 197.65 6.43044V11.3601H197.049C196.917 11.3601 196.815 11.3398 196.744 11.2992C196.673 11.2536 196.618 11.1673 196.577 11.0405L196.425 10.3102C196.222 10.4979 196.024 10.6652 195.832 10.8123C195.639 10.9543 195.436 11.076 195.223 11.1775C195.01 11.2738 194.782 11.3474 194.538 11.3981C194.3 11.4539 194.034 11.4818 193.739 11.4818C193.44 11.4818 193.159 11.4412 192.895 11.3601C192.631 11.2738 192.401 11.1471 192.203 10.9797C192.01 10.8123 191.855 10.6019 191.739 10.3483C191.627 10.0896 191.571 9.78532 191.571 9.43538C191.571 9.13108 191.655 8.83946 191.822 8.56052C191.99 8.27651 192.261 8.02546 192.636 7.80738C193.012 7.5893 193.501 7.4118 194.105 7.27486C194.708 7.13286 195.449 7.05171 196.326 7.03142V6.43044C196.326 5.83198 196.197 5.38061 195.938 5.07631C195.679 4.76694 195.302 4.61226 194.805 4.61226C194.47 4.61226 194.188 4.65537 193.96 4.74158C193.737 4.82273 193.542 4.91656 193.374 5.02306C193.212 5.12449 193.07 5.21832 192.948 5.30453C192.832 5.38568 192.715 5.42625 192.598 5.42625C192.507 5.42625 192.428 5.40343 192.363 5.35779C192.297 5.30707 192.241 5.24621 192.195 5.17521L191.952 4.74158Z" fill="white"/>
<path d="M199.712 11.3601V3.65372H200.526C200.719 3.65372 200.838 3.74755 200.884 3.93519L200.983 4.72637C201.267 4.37643 201.586 4.08988 201.941 3.86673C202.296 3.64358 202.707 3.532 203.174 3.532C203.691 3.532 204.11 3.67654 204.429 3.96563C204.754 4.25471 204.987 4.64522 205.129 5.13717C205.24 4.85823 205.382 4.61733 205.555 4.41446C205.732 4.2116 205.93 4.04424 206.148 3.91237C206.366 3.78051 206.597 3.68415 206.841 3.62329C207.089 3.56243 207.34 3.532 207.594 3.532C207.999 3.532 208.36 3.59793 208.674 3.72979C208.993 3.85659 209.262 4.04424 209.48 4.29275C209.704 4.54125 209.873 4.84809 209.99 5.21325C210.107 5.57333 210.165 5.98667 210.165 6.45326V11.3601H208.803V6.45326C208.803 5.84973 208.671 5.39329 208.408 5.08392C208.144 4.76948 207.764 4.61226 207.267 4.61226C207.043 4.61226 206.83 4.65283 206.628 4.73398C206.43 4.81005 206.255 4.92416 206.103 5.07631C205.951 5.22846 205.829 5.42118 205.737 5.65448C205.651 5.8827 205.608 6.14896 205.608 6.45326V11.3601H204.246V6.45326C204.246 5.83452 204.122 5.373 203.874 5.0687C203.625 4.76441 203.263 4.61226 202.786 4.61226C202.451 4.61226 202.142 4.70355 201.858 4.88613C201.574 5.06363 201.313 5.30707 201.074 5.61644V11.3601H199.712Z" fill="white"/>
<path d="M217.381 6.66627C217.381 6.35183 217.335 6.06528 217.244 5.80663C217.158 5.5429 217.028 5.31721 216.856 5.12956C216.689 4.93684 216.483 4.78976 216.24 4.68833C215.996 4.58183 215.72 4.52858 215.411 4.52858C214.761 4.52858 214.247 4.71876 213.866 5.09913C213.491 5.47443 213.258 5.99681 213.166 6.66627H217.381ZM218.476 10.2798C218.309 10.4827 218.109 10.6602 217.875 10.8123C217.642 10.9594 217.391 11.0811 217.122 11.1775C216.859 11.2738 216.585 11.3448 216.301 11.3905C216.017 11.4412 215.735 11.4666 215.456 11.4666C214.924 11.4666 214.432 11.3778 213.98 11.2003C213.534 11.0177 213.146 10.754 212.816 10.4091C212.492 10.0592 212.238 9.6281 212.056 9.11586C211.873 8.60363 211.782 8.01532 211.782 7.35094C211.782 6.81334 211.863 6.31125 212.025 5.84466C212.193 5.37807 212.431 4.97488 212.74 4.63508C213.05 4.29021 213.428 4.02141 213.874 3.82869C214.32 3.6309 214.822 3.532 215.38 3.532C215.842 3.532 216.268 3.61061 216.658 3.76783C217.054 3.91998 217.394 4.14313 217.678 4.43729C217.967 4.72637 218.192 5.08645 218.355 5.51754C218.517 5.94356 218.598 6.43044 218.598 6.97817C218.598 7.19118 218.575 7.33319 218.53 7.40419C218.484 7.47519 218.398 7.51069 218.271 7.51069H213.121C213.136 7.99757 213.202 8.42105 213.319 8.78114C213.44 9.14122 213.608 9.44298 213.821 9.68642C214.034 9.92479 214.287 10.1048 214.581 10.2266C214.876 10.3432 215.205 10.4015 215.57 10.4015C215.91 10.4015 216.202 10.3635 216.445 10.2874C216.694 10.2063 216.907 10.12 217.084 10.0288C217.262 9.93747 217.409 9.85379 217.525 9.77771C217.647 9.69656 217.751 9.65599 217.837 9.65599C217.949 9.65599 218.035 9.6991 218.096 9.78532L218.476 10.2798Z" fill="white"/>
<path d="M233.922 5.91313C233.922 6.72966 233.793 7.47266 233.534 8.14211C233.276 8.81157 232.91 9.38466 232.439 9.86139C231.967 10.3381 231.399 10.7084 230.735 10.9721C230.075 11.2307 229.345 11.3601 228.544 11.3601H224.474V0.458594H228.544C229.345 0.458594 230.075 0.590457 230.735 0.854182C231.399 1.11283 231.967 1.48306 232.439 1.96487C232.91 2.4416 233.276 3.01469 233.534 3.68415C233.793 4.3536 233.922 5.0966 233.922 5.91313ZM232.408 5.91313C232.408 5.24368 232.317 4.64522 232.134 4.11777C231.952 3.59032 231.693 3.14402 231.359 2.77886C231.024 2.41371 230.618 2.13477 230.141 1.94205C229.665 1.74932 229.132 1.65296 228.544 1.65296H225.95V10.1657H228.544C229.132 10.1657 229.665 10.0693 230.141 9.87661C230.618 9.68389 231.024 9.40748 231.359 9.0474C231.693 8.68224 231.952 8.23594 232.134 7.70849C232.317 7.18104 232.408 6.58258 232.408 5.91313Z" fill="white"/>
<path d="M240.783 6.66627C240.783 6.35183 240.737 6.06528 240.646 5.80663C240.56 5.5429 240.43 5.31721 240.258 5.12956C240.09 4.93684 239.885 4.78976 239.642 4.68833C239.398 4.58183 239.122 4.52858 238.812 4.52858C238.163 4.52858 237.648 4.71876 237.268 5.09913C236.893 5.47443 236.659 5.99681 236.568 6.66627H240.783ZM241.878 10.2798C241.711 10.4827 241.511 10.6602 241.277 10.8123C241.044 10.9594 240.793 11.0811 240.524 11.1775C240.26 11.2738 239.986 11.3448 239.702 11.3905C239.418 11.4412 239.137 11.4666 238.858 11.4666C238.326 11.4666 237.834 11.3778 237.382 11.2003C236.936 11.0177 236.548 10.754 236.218 10.4091C235.894 10.0592 235.64 9.6281 235.458 9.11586C235.275 8.60363 235.184 8.01532 235.184 7.35094C235.184 6.81334 235.265 6.31125 235.427 5.84466C235.594 5.37807 235.833 4.97488 236.142 4.63508C236.452 4.29021 236.829 4.02141 237.276 3.82869C237.722 3.6309 238.224 3.532 238.782 3.532C239.243 3.532 239.669 3.61061 240.06 3.76783C240.456 3.91998 240.795 4.14313 241.079 4.43729C241.368 4.72637 241.594 5.08645 241.756 5.51754C241.919 5.94356 242 6.43044 242 6.97817C242 7.19118 241.977 7.33319 241.931 7.40419C241.886 7.47519 241.8 7.51069 241.673 7.51069H236.523C236.538 7.99757 236.604 8.42105 236.72 8.78114C236.842 9.14122 237.009 9.44298 237.222 9.68642C237.435 9.92479 237.689 10.1048 237.983 10.2266C238.277 10.3432 238.607 10.4015 238.972 10.4015C239.312 10.4015 239.604 10.3635 239.847 10.2874C240.096 10.2063 240.309 10.12 240.486 10.0288C240.664 9.93747 240.811 9.85379 240.927 9.77771C241.049 9.69656 241.153 9.65599 241.239 9.65599C241.351 9.65599 241.437 9.6991 241.498 9.78532L241.878 10.2798Z" fill="white"/>
<path d="M250.103 3.65372L246.961 11.3601H245.744L242.602 3.65372H243.705C243.817 3.65372 243.908 3.68161 243.979 3.7374C244.05 3.79319 244.098 3.85912 244.124 3.93519L246.079 8.89525C246.14 9.0829 246.193 9.26548 246.238 9.44298C246.284 9.62049 246.327 9.798 246.368 9.9755C246.408 9.798 246.451 9.62049 246.497 9.44298C246.543 9.26548 246.599 9.0829 246.664 8.89525L248.642 3.93519C248.673 3.85405 248.724 3.78812 248.795 3.7374C248.866 3.68161 248.949 3.65372 249.046 3.65372H250.103Z" fill="white"/>
<path d="M256.295 6.66627C256.295 6.35183 256.249 6.06528 256.158 5.80663C256.072 5.5429 255.942 5.31721 255.77 5.12956C255.602 4.93684 255.397 4.78976 255.154 4.68833C254.91 4.58183 254.634 4.52858 254.324 4.52858C253.675 4.52858 253.16 4.71876 252.78 5.09913C252.405 5.47443 252.172 5.99681 252.08 6.66627H256.295ZM257.39 10.2798C257.223 10.4827 257.023 10.6602 256.789 10.8123C256.556 10.9594 256.305 11.0811 256.036 11.1775C255.772 11.2738 255.499 11.3448 255.215 11.3905C254.931 11.4412 254.649 11.4666 254.37 11.4666C253.838 11.4666 253.346 11.3778 252.894 11.2003C252.448 11.0177 252.06 10.754 251.73 10.4091C251.406 10.0592 251.152 9.6281 250.97 9.11586C250.787 8.60363 250.696 8.01532 250.696 7.35094C250.696 6.81334 250.777 6.31125 250.939 5.84466C251.106 5.37807 251.345 4.97488 251.654 4.63508C251.964 4.29021 252.341 4.02141 252.788 3.82869C253.234 3.6309 253.736 3.532 254.294 3.532C254.756 3.532 255.182 3.61061 255.572 3.76783C255.968 3.91998 256.307 4.14313 256.591 4.43729C256.881 4.72637 257.106 5.08645 257.269 5.51754C257.431 5.94356 257.512 6.43044 257.512 6.97817C257.512 7.19118 257.489 7.33319 257.443 7.40419C257.398 7.47519 257.312 7.51069 257.185 7.51069H252.035C252.05 7.99757 252.116 8.42105 252.232 8.78114C252.354 9.14122 252.521 9.44298 252.734 9.68642C252.947 9.92479 253.201 10.1048 253.495 10.2266C253.789 10.3432 254.119 10.4015 254.484 10.4015C254.824 10.4015 255.116 10.3635 255.359 10.2874C255.608 10.2063 255.821 10.12 255.998 10.0288C256.176 9.93747 256.323 9.85379 256.439 9.77771C256.561 9.69656 256.665 9.65599 256.751 9.65599C256.863 9.65599 256.949 9.6991 257.01 9.78532L257.39 10.2798Z" fill="white"/>
<path d="M260.575 0.154297V11.3601H259.221V0.154297H260.575Z" fill="white"/>
<path d="M266.019 3.532C266.582 3.532 267.089 3.62583 267.541 3.81348C267.992 4.00113 268.378 4.26739 268.697 4.61226C269.017 4.95713 269.26 5.37554 269.427 5.86749C269.6 6.35436 269.686 6.89956 269.686 7.50309C269.686 8.11168 269.6 8.65942 269.427 9.14629C269.26 9.63317 269.017 10.049 268.697 10.3939C268.378 10.7388 267.992 11.005 267.541 11.1927C267.089 11.3753 266.582 11.4666 266.019 11.4666C265.451 11.4666 264.939 11.3753 264.483 11.1927C264.031 11.005 263.646 10.7388 263.326 10.3939C263.007 10.049 262.761 9.63317 262.588 9.14629C262.421 8.65942 262.337 8.11168 262.337 7.50309C262.337 6.89956 262.421 6.35436 262.588 5.86749C262.761 5.37554 263.007 4.95713 263.326 4.61226C263.646 4.26739 264.031 4.00113 264.483 3.81348C264.939 3.62583 265.451 3.532 266.019 3.532ZM266.019 10.4091C266.78 10.4091 267.348 10.1555 267.723 9.64838C268.099 9.13615 268.286 8.42359 268.286 7.51069C268.286 6.59273 268.099 5.87763 267.723 5.36539C267.348 4.85316 266.78 4.59704 266.019 4.59704C265.634 4.59704 265.297 4.66297 265.008 4.79484C264.724 4.9267 264.485 5.11688 264.292 5.36539C264.105 5.6139 263.963 5.92074 263.866 6.28589C263.775 6.64598 263.729 7.05425 263.729 7.51069C263.729 8.42359 263.917 9.13615 264.292 9.64838C264.673 10.1555 265.248 10.4091 266.019 10.4091Z" fill="white"/>
<path d="M272.765 9.50384C273.014 9.83857 273.285 10.0744 273.579 10.2113C273.874 10.3483 274.203 10.4167 274.568 10.4167C275.288 10.4167 275.841 10.1606 276.227 9.64838C276.612 9.13615 276.805 8.40584 276.805 7.45744C276.805 6.95535 276.759 6.52426 276.668 6.16418C276.582 5.80409 276.455 5.50994 276.288 5.28171C276.12 5.04842 275.915 4.87852 275.671 4.77201C275.428 4.66551 275.152 4.61226 274.842 4.61226C274.401 4.61226 274.013 4.71369 273.678 4.91656C273.349 5.11942 273.044 5.40597 272.765 5.7762V9.50384ZM272.697 4.84809C273.021 4.44743 273.397 4.12538 273.823 3.88194C274.249 3.63851 274.736 3.51679 275.283 3.51679C275.73 3.51679 276.133 3.603 276.493 3.77544C276.853 3.9428 277.16 4.19385 277.413 4.52858C277.667 4.85823 277.862 5.26903 277.999 5.76098C278.136 6.25293 278.205 6.81842 278.205 7.45744C278.205 8.02546 278.129 8.55545 277.976 9.0474C277.824 9.53427 277.604 9.95775 277.315 10.3178C277.031 10.6729 276.681 10.9543 276.265 11.1623C275.854 11.3651 275.39 11.4666 274.873 11.4666C274.401 11.4666 273.995 11.388 273.655 11.2307C273.321 11.0684 273.024 10.8453 272.765 10.5613V13.9694H271.404V3.65372H272.218C272.41 3.65372 272.53 3.74755 272.575 3.93519L272.697 4.84809Z" fill="white"/>
<path d="M279.932 11.3601V3.65372H280.746C280.939 3.65372 281.058 3.74755 281.104 3.93519L281.203 4.72637C281.487 4.37643 281.806 4.08988 282.161 3.86673C282.516 3.64358 282.927 3.532 283.394 3.532C283.911 3.532 284.329 3.67654 284.649 3.96563C284.973 4.25471 285.207 4.64522 285.349 5.13717C285.46 4.85823 285.602 4.61733 285.775 4.41446C285.952 4.2116 286.15 4.04424 286.368 3.91237C286.586 3.78051 286.817 3.68415 287.06 3.62329C287.309 3.56243 287.56 3.532 287.814 3.532C288.219 3.532 288.579 3.59793 288.894 3.72979C289.213 3.85659 289.482 4.04424 289.7 4.29275C289.923 4.54125 290.093 4.84809 290.21 5.21325C290.327 5.57333 290.385 5.98667 290.385 6.45326V11.3601H289.023V6.45326C289.023 5.84973 288.891 5.39329 288.628 5.08392C288.364 4.76948 287.983 4.61226 287.486 4.61226C287.263 4.61226 287.05 4.65283 286.847 4.73398C286.65 4.81005 286.475 4.92416 286.323 5.07631C286.17 5.22846 286.049 5.42118 285.957 5.65448C285.871 5.8827 285.828 6.14896 285.828 6.45326V11.3601H284.466V6.45326C284.466 5.83452 284.342 5.373 284.094 5.0687C283.845 4.76441 283.482 4.61226 283.006 4.61226C282.671 4.61226 282.362 4.70355 282.078 4.88613C281.794 5.06363 281.532 5.30707 281.294 5.61644V11.3601H279.932Z" fill="white"/>
<path d="M297.601 6.66627C297.601 6.35183 297.555 6.06528 297.464 5.80663C297.378 5.5429 297.248 5.31721 297.076 5.12956C296.909 4.93684 296.703 4.78976 296.46 4.68833C296.216 4.58183 295.94 4.52858 295.63 4.52858C294.981 4.52858 294.467 4.71876 294.086 5.09913C293.711 5.47443 293.478 5.99681 293.386 6.66627H297.601ZM298.696 10.2798C298.529 10.4827 298.329 10.6602 298.095 10.8123C297.862 10.9594 297.611 11.0811 297.342 11.1775C297.078 11.2738 296.805 11.3448 296.521 11.3905C296.237 11.4412 295.955 11.4666 295.676 11.4666C295.144 11.4666 294.652 11.3778 294.2 11.2003C293.754 11.0177 293.366 10.754 293.036 10.4091C292.712 10.0592 292.458 9.6281 292.276 9.11586C292.093 8.60363 292.002 8.01532 292.002 7.35094C292.002 6.81334 292.083 6.31125 292.245 5.84466C292.413 5.37807 292.651 4.97488 292.96 4.63508C293.27 4.29021 293.647 4.02141 294.094 3.82869C294.54 3.6309 295.042 3.532 295.6 3.532C296.062 3.532 296.488 3.61061 296.878 3.76783C297.274 3.91998 297.613 4.14313 297.897 4.43729C298.187 4.72637 298.412 5.08645 298.575 5.51754C298.737 5.94356 298.818 6.43044 298.818 6.97817C298.818 7.19118 298.795 7.33319 298.75 7.40419C298.704 7.47519 298.618 7.51069 298.491 7.51069H293.341C293.356 7.99757 293.422 8.42105 293.538 8.78114C293.66 9.14122 293.827 9.44298 294.041 9.68642C294.254 9.92479 294.507 10.1048 294.801 10.2266C295.095 10.3432 295.425 10.4015 295.79 10.4015C296.13 10.4015 296.422 10.3635 296.665 10.2874C296.914 10.2063 297.127 10.12 297.304 10.0288C297.482 9.93747 297.629 9.85379 297.745 9.77771C297.867 9.69656 297.971 9.65599 298.057 9.65599C298.169 9.65599 298.255 9.6991 298.316 9.78532L298.696 10.2798Z" fill="white"/>
<path d="M301.759 4.77201C301.927 4.58436 302.104 4.41446 302.292 4.26232C302.479 4.11017 302.677 3.98084 302.885 3.87434C303.098 3.76276 303.321 3.67908 303.555 3.62329C303.793 3.56243 304.049 3.532 304.323 3.532C304.744 3.532 305.114 3.603 305.434 3.74501C305.758 3.88194 306.027 4.07974 306.24 4.33839C306.458 4.59197 306.623 4.8988 306.735 5.25889C306.846 5.61898 306.902 6.0171 306.902 6.45326V11.3601H305.54V6.45326C305.54 5.87002 305.406 5.41865 305.137 5.09913C304.873 4.77455 304.47 4.61226 303.927 4.61226C303.527 4.61226 303.151 4.70862 302.802 4.90134C302.457 5.09406 302.137 5.35525 301.843 5.68491V11.3601H300.481V3.65372H301.295C301.488 3.65372 301.607 3.74755 301.653 3.93519L301.759 4.77201Z" fill="white"/>
<path d="M311.227 11.4818C310.619 11.4818 310.15 11.3119 309.82 10.9721C309.495 10.6323 309.333 10.1429 309.333 9.50384V4.78723H308.405C308.324 4.78723 308.255 4.76441 308.199 4.71876C308.144 4.66805 308.116 4.59197 308.116 4.49054V3.95041L309.379 3.79065L309.691 1.40952C309.706 1.33345 309.739 1.27259 309.789 1.22695C309.845 1.17623 309.916 1.15087 310.002 1.15087H310.687V3.80587H312.916V4.78723H310.687V9.41255C310.687 9.73714 310.766 9.97804 310.923 10.1353C311.08 10.2925 311.283 10.3711 311.532 10.3711C311.674 10.3711 311.795 10.3533 311.897 10.3178C312.003 10.2773 312.095 10.2342 312.171 10.1885C312.247 10.1429 312.31 10.1023 312.361 10.0668C312.417 10.0262 312.465 10.0059 312.505 10.0059C312.576 10.0059 312.64 10.049 312.696 10.1353L313.091 10.7819C312.858 11 312.576 11.1724 312.247 11.2992C311.917 11.4209 311.577 11.4818 311.227 11.4818Z" fill="white"/>
<path d="M185.257 26.487C184.633 26.5073 184.1 26.558 183.659 26.6392C183.223 26.7153 182.865 26.8167 182.586 26.9435C182.313 27.0703 182.112 27.2199 181.985 27.3923C181.864 27.5648 181.803 27.7575 181.803 27.9705C181.803 28.1733 181.836 28.3483 181.902 28.4954C181.968 28.6425 182.056 28.7642 182.168 28.8606C182.285 28.9518 182.419 29.0203 182.571 29.066C182.728 29.1065 182.896 29.1268 183.073 29.1268C183.312 29.1268 183.53 29.104 183.728 29.0583C183.925 29.0076 184.11 28.9366 184.283 28.8453C184.46 28.7541 184.628 28.645 184.785 28.5182C184.947 28.3914 185.104 28.2469 185.257 28.0846V26.487ZM180.882 23.3376C181.308 22.9268 181.767 22.6199 182.259 22.4171C182.751 22.2142 183.296 22.1128 183.895 22.1128C184.326 22.1128 184.709 22.1838 185.044 22.3258C185.378 22.4678 185.66 22.6656 185.888 22.9191C186.116 23.1727 186.289 23.4796 186.405 23.8396C186.522 24.1997 186.58 24.5953 186.58 25.0264V29.956H185.979C185.847 29.956 185.746 29.9357 185.675 29.8952C185.604 29.8495 185.548 29.7633 185.508 29.6365L185.356 28.9062C185.153 29.0938 184.955 29.2612 184.762 29.4083C184.569 29.5503 184.367 29.672 184.154 29.7734C183.941 29.8698 183.712 29.9433 183.469 29.9941C183.23 30.0499 182.964 30.0777 182.67 30.0777C182.371 30.0777 182.089 30.0372 181.826 29.956C181.562 29.8698 181.331 29.743 181.133 29.5757C180.941 29.4083 180.786 29.1978 180.669 28.9442C180.558 28.6856 180.502 28.3813 180.502 28.0313C180.502 27.727 180.586 27.4354 180.753 27.1565C180.92 26.8725 181.192 26.6214 181.567 26.4034C181.942 26.1853 182.432 26.0078 183.035 25.8708C183.639 25.7288 184.379 25.6477 185.257 25.6274V25.0264C185.257 24.428 185.127 23.9766 184.869 23.6723C184.61 23.3629 184.232 23.2082 183.735 23.2082C183.4 23.2082 183.119 23.2513 182.891 23.3376C182.668 23.4187 182.472 23.5125 182.305 23.619C182.143 23.7205 182.001 23.8143 181.879 23.9005C181.762 23.9816 181.646 24.0222 181.529 24.0222C181.438 24.0222 181.359 23.9994 181.293 23.9538C181.227 23.903 181.171 23.8422 181.126 23.7712L180.882 23.3376Z" fill="white"/>
<path d="M189.921 23.368C190.088 23.1803 190.266 23.0104 190.454 22.8583C190.641 22.7061 190.839 22.5768 191.047 22.4703C191.26 22.3587 191.483 22.275 191.716 22.2193C191.955 22.1584 192.211 22.128 192.485 22.128C192.906 22.128 193.276 22.199 193.595 22.341C193.92 22.4779 194.189 22.6757 194.402 22.9344C194.62 23.1879 194.785 23.4948 194.896 23.8549C195.008 24.2149 195.064 24.6131 195.064 25.0492V29.956H193.702V25.0492C193.702 24.466 193.568 24.0146 193.299 23.6951C193.035 23.3705 192.632 23.2082 192.089 23.2082C191.688 23.2082 191.313 23.3046 190.963 23.4973C190.618 23.69 190.299 23.9512 190.005 24.2809V29.956H188.643V22.2497H189.457C189.65 22.2497 189.769 22.3435 189.815 22.5312L189.921 23.368Z" fill="white"/>
<path d="M202.148 24.0831C201.894 23.7433 201.621 23.5075 201.326 23.3756C201.032 23.2387 200.703 23.1702 200.337 23.1702C199.622 23.1702 199.072 23.4263 198.687 23.9385C198.301 24.4508 198.108 25.1811 198.108 26.1295C198.108 26.6316 198.152 27.0627 198.238 27.4228C198.324 27.7778 198.451 28.0719 198.618 28.3052C198.785 28.5334 198.991 28.7008 199.234 28.8073C199.478 28.9138 199.754 28.9671 200.064 28.9671C200.51 28.9671 200.898 28.8656 201.227 28.6628C201.562 28.4599 201.869 28.1733 202.148 27.8031V24.0831ZM203.502 18.7503V29.956H202.696C202.503 29.956 202.381 29.8622 202.331 29.6746L202.209 28.7388C201.879 29.1344 201.504 29.4539 201.083 29.6974C200.662 29.9408 200.175 30.0625 199.622 30.0625C199.181 30.0625 198.78 29.9789 198.42 29.8115C198.06 29.6391 197.753 29.388 197.5 29.0583C197.246 28.7287 197.051 28.3179 196.914 27.8259C196.777 27.334 196.709 26.7685 196.709 26.1295C196.709 25.5615 196.785 25.034 196.937 24.5471C197.089 24.0552 197.307 23.6292 197.591 23.2691C197.875 22.909 198.223 22.6275 198.633 22.4247C199.049 22.2167 199.516 22.1128 200.033 22.1128C200.505 22.1128 200.908 22.1939 201.243 22.3562C201.582 22.5134 201.884 22.734 202.148 23.018V18.7503H203.502Z" fill="white"/>
<path d="M215.137 25.9089L213.426 21.4737C213.375 21.3419 213.322 21.1897 213.266 21.0173C213.21 20.8398 213.157 20.6521 213.106 20.4543C213 20.8651 212.891 21.2075 212.779 21.4813L211.067 25.9089H215.137ZM218.211 29.956H217.07C216.938 29.956 216.831 29.9231 216.75 29.8571C216.669 29.7912 216.608 29.7075 216.568 29.6061L215.548 26.9739H210.657L209.637 29.6061C209.607 29.6974 209.548 29.7785 209.462 29.8495C209.376 29.9205 209.269 29.956 209.143 29.956H208.002L212.361 19.0546H213.852L218.211 29.956Z" fill="white"/>
<path d="M220.581 23.794C220.825 23.2665 221.124 22.8557 221.479 22.5616C221.834 22.2624 222.268 22.1128 222.78 22.1128C222.942 22.1128 223.097 22.1305 223.244 22.166C223.396 22.2015 223.53 22.2573 223.647 22.3334L223.548 23.3452C223.518 23.472 223.442 23.5353 223.32 23.5353C223.249 23.5353 223.145 23.5201 223.008 23.4897C222.871 23.4593 222.716 23.4441 222.544 23.4441C222.301 23.4441 222.082 23.4796 221.89 23.5506C221.702 23.6216 221.532 23.7281 221.38 23.8701C221.233 24.007 221.099 24.1794 220.977 24.3874C220.86 24.5902 220.754 24.8235 220.657 25.0873V29.956H219.296V22.2497H220.072C220.219 22.2497 220.32 22.2776 220.376 22.3334C220.432 22.3892 220.47 22.4855 220.49 22.6225L220.581 23.794Z" fill="white"/>
<path d="M227.204 30.0777C226.595 30.0777 226.126 29.9078 225.796 29.568C225.472 29.2282 225.309 28.7388 225.309 28.0998V23.3832H224.381C224.3 23.3832 224.232 23.3604 224.176 23.3147C224.12 23.264 224.092 23.1879 224.092 23.0865V22.5464L225.355 22.3866L225.667 20.0055C225.682 19.9294 225.715 19.8686 225.766 19.8229C225.822 19.7722 225.893 19.7468 225.979 19.7468H226.664V22.4018H228.893V23.3832H226.664V28.0085C226.664 28.3331 226.742 28.574 226.899 28.7312C227.057 28.8885 227.259 28.9671 227.508 28.9671C227.65 28.9671 227.772 28.9493 227.873 28.9138C227.98 28.8732 228.071 28.8301 228.147 28.7845C228.223 28.7388 228.286 28.6983 228.337 28.6628C228.393 28.6222 228.441 28.6019 228.482 28.6019C228.553 28.6019 228.616 28.645 228.672 28.7312L229.068 29.3779C228.834 29.5959 228.553 29.7684 228.223 29.8952C227.893 30.0169 227.554 30.0777 227.204 30.0777Z" fill="white"/>
<path d="M244.575 24.5091C244.575 25.3256 244.446 26.0762 244.187 26.7609C243.929 27.4405 243.564 28.0263 243.092 28.5182C242.62 29.0102 242.052 29.3931 241.388 29.6669C240.729 29.9357 239.998 30.0701 239.197 30.0701C238.396 30.0701 237.665 29.9357 237.006 29.6669C236.347 29.3931 235.781 29.0102 235.31 28.5182C234.838 28.0263 234.473 27.4405 234.214 26.7609C233.955 26.0762 233.826 25.3256 233.826 24.5091C233.826 23.6926 233.955 22.9445 234.214 22.2649C234.473 21.5802 234.838 20.9919 235.31 20.5C235.781 20.003 236.347 19.6175 237.006 19.3436C237.665 19.0698 238.396 18.9328 239.197 18.9328C239.998 18.9328 240.729 19.0698 241.388 19.3436C242.052 19.6175 242.62 20.003 243.092 20.5C243.564 20.9919 243.929 21.5802 244.187 22.2649C244.446 22.9445 244.575 23.6926 244.575 24.5091ZM243.062 24.5091C243.062 23.8396 242.97 23.2387 242.788 22.7061C242.605 22.1736 242.346 21.7248 242.012 21.3596C241.677 20.9894 241.271 20.7054 240.794 20.5076C240.318 20.3098 239.785 20.2109 239.197 20.2109C238.614 20.2109 238.084 20.3098 237.607 20.5076C237.13 20.7054 236.722 20.9894 236.382 21.3596C236.047 21.7248 235.789 22.1736 235.606 22.7061C235.424 23.2387 235.332 23.8396 235.332 24.5091C235.332 25.1786 235.424 25.7795 235.606 26.3121C235.789 26.8395 236.047 27.2884 236.382 27.6586C236.722 28.0237 237.13 28.3052 237.607 28.503C238.084 28.6957 238.614 28.7921 239.197 28.7921C239.785 28.7921 240.318 28.6957 240.794 28.503C241.271 28.3052 241.677 28.0237 242.012 27.6586C242.346 27.2884 242.605 26.8395 242.788 26.3121C242.97 25.7795 243.062 25.1786 243.062 24.5091Z" fill="white"/>
<path d="M252.586 22.2497V29.956H251.779C251.586 29.956 251.465 29.8622 251.414 29.6746L251.307 28.8453C250.973 29.2156 250.597 29.5148 250.182 29.743C249.766 29.9662 249.289 30.0777 248.751 30.0777C248.33 30.0777 247.958 30.0093 247.633 29.8723C247.314 29.7303 247.045 29.5325 246.827 29.279C246.609 29.0254 246.444 28.7185 246.332 28.3585C246.226 27.9984 246.172 27.6003 246.172 27.1641V22.2497H247.527V27.1641C247.527 27.7473 247.658 28.1987 247.922 28.5182C248.191 28.8377 248.599 28.9975 249.147 28.9975C249.548 28.9975 249.92 28.9037 250.265 28.716C250.615 28.5233 250.937 28.2596 251.231 27.9248V22.2497H252.586Z" fill="white"/>
<path d="M257.099 30.0777C256.49 30.0777 256.021 29.9078 255.691 29.568C255.367 29.2282 255.204 28.7388 255.204 28.0998V23.3832H254.276C254.195 23.3832 254.127 23.3604 254.071 23.3147C254.015 23.264 253.987 23.1879 253.987 23.0865V22.5464L255.25 22.3866L255.562 20.0055C255.577 19.9294 255.61 19.8686 255.661 19.8229C255.717 19.7722 255.788 19.7468 255.874 19.7468H256.558V22.4018H258.787V23.3832H256.558V28.0085C256.558 28.3331 256.637 28.574 256.794 28.7312C256.951 28.8885 257.154 28.9671 257.403 28.9671C257.545 28.9671 257.667 28.9493 257.768 28.9138C257.875 28.8732 257.966 28.8301 258.042 28.7845C258.118 28.7388 258.181 28.6983 258.232 28.6628C258.288 28.6222 258.336 28.6019 258.377 28.6019C258.448 28.6019 258.511 28.645 258.567 28.7312L258.962 29.3779C258.729 29.5959 258.448 29.7684 258.118 29.8952C257.788 30.0169 257.448 30.0777 257.099 30.0777Z" fill="white"/>
<path d="M264.674 23.5201C264.613 23.6317 264.519 23.6875 264.393 23.6875C264.316 23.6875 264.23 23.6596 264.134 23.6038C264.038 23.548 263.918 23.4872 263.776 23.4212C263.639 23.3502 263.475 23.2868 263.282 23.231C263.089 23.1702 262.861 23.1398 262.597 23.1398C262.369 23.1398 262.164 23.1702 261.981 23.231C261.798 23.2868 261.641 23.3654 261.509 23.4669C261.383 23.5683 261.284 23.6875 261.213 23.8244C261.147 23.9563 261.114 24.1008 261.114 24.2581C261.114 24.4558 261.17 24.6207 261.281 24.7525C261.398 24.8844 261.55 24.9985 261.738 25.0949C261.925 25.1912 262.138 25.2775 262.377 25.3535C262.615 25.4245 262.858 25.5031 263.107 25.5894C263.36 25.6705 263.606 25.7618 263.845 25.8632C264.083 25.9647 264.296 26.0914 264.484 26.2436C264.671 26.3957 264.821 26.5834 264.933 26.8065C265.049 27.0246 265.108 27.2883 265.108 27.5977C265.108 27.9527 265.044 28.2824 264.917 28.5867C264.791 28.8859 264.603 29.1471 264.354 29.3703C264.106 29.5883 263.802 29.7608 263.442 29.8876C263.082 30.0144 262.666 30.0777 262.194 30.0777C261.656 30.0777 261.17 29.9915 260.733 29.8191C260.297 29.6416 259.927 29.4159 259.623 29.142L259.942 28.6247C259.983 28.5588 260.031 28.5081 260.087 28.4726C260.143 28.4371 260.214 28.4193 260.3 28.4193C260.391 28.4193 260.487 28.4548 260.589 28.5258C260.69 28.5968 260.812 28.6754 260.954 28.7617C261.101 28.8479 261.279 28.9265 261.486 28.9975C261.694 29.0685 261.953 29.104 262.262 29.104C262.526 29.104 262.757 29.071 262.955 29.0051C263.153 28.9341 263.317 28.8403 263.449 28.7236C263.581 28.607 263.677 28.4726 263.738 28.3204C263.804 28.1683 263.837 28.006 263.837 27.8336C263.837 27.6205 263.779 27.4456 263.662 27.3086C263.551 27.1666 263.401 27.0474 263.213 26.9511C263.026 26.8497 262.81 26.7634 262.567 26.6924C262.328 26.6164 262.082 26.5378 261.829 26.4566C261.58 26.3755 261.334 26.2842 261.091 26.1827C260.853 26.0762 260.64 25.9444 260.452 25.7871C260.264 25.6299 260.112 25.4372 259.995 25.209C259.884 24.9757 259.828 24.6942 259.828 24.3646C259.828 24.0704 259.889 23.7889 260.011 23.5201C260.132 23.2463 260.31 23.0079 260.543 22.805C260.776 22.5971 261.063 22.4323 261.403 22.3105C261.743 22.1888 262.131 22.128 262.567 22.128C263.074 22.128 263.528 22.2091 263.928 22.3714C264.334 22.5286 264.684 22.7467 264.978 23.0256L264.674 23.5201Z" fill="white"/>
<path d="M270.016 22.128C270.579 22.128 271.086 22.2218 271.538 22.4094C271.989 22.5971 272.375 22.8634 272.694 23.2082C273.014 23.5531 273.257 23.9715 273.424 24.4635C273.597 24.9503 273.683 25.4955 273.683 26.0991C273.683 26.7076 273.597 27.2554 273.424 27.7423C273.257 28.2291 273.014 28.645 272.694 28.9899C272.375 29.3348 271.989 29.601 271.538 29.7887C271.086 29.9712 270.579 30.0625 270.016 30.0625C269.448 30.0625 268.936 29.9712 268.48 29.7887C268.028 29.601 267.643 29.3348 267.323 28.9899C267.004 28.645 266.758 28.2291 266.585 27.7423C266.418 27.2554 266.334 26.7076 266.334 26.0991C266.334 25.4955 266.418 24.9503 266.585 24.4635C266.758 23.9715 267.004 23.5531 267.323 23.2082C267.643 22.8634 268.028 22.5971 268.48 22.4094C268.936 22.2218 269.448 22.128 270.016 22.128ZM270.016 29.0051C270.777 29.0051 271.345 28.7515 271.72 28.2444C272.096 27.7321 272.283 27.0196 272.283 26.1067C272.283 25.1887 272.096 24.4736 271.72 23.9614C271.345 23.4491 270.777 23.193 270.016 23.193C269.631 23.193 269.294 23.2589 269.004 23.3908C268.72 23.5227 268.482 23.7129 268.289 23.9614C268.102 24.2099 267.96 24.5167 267.863 24.8819C267.772 25.2419 267.726 25.6502 267.726 26.1067C267.726 27.0196 267.914 27.7321 268.289 28.2444C268.67 28.7515 269.245 29.0051 270.016 29.0051Z" fill="white"/>
<path d="M281.738 22.2497V29.956H280.931C280.738 29.956 280.617 29.8622 280.566 29.6746L280.459 28.8453C280.125 29.2156 279.749 29.5148 279.334 29.743C278.918 29.9662 278.441 30.0777 277.903 30.0777C277.482 30.0777 277.11 30.0093 276.785 29.8723C276.466 29.7303 276.197 29.5325 275.979 29.279C275.761 29.0254 275.596 28.7185 275.484 28.3585C275.378 27.9984 275.324 27.6003 275.324 27.1641V22.2497H276.679V27.1641C276.679 27.7473 276.81 28.1987 277.074 28.5182C277.343 28.8377 277.751 28.9975 278.299 28.9975C278.7 28.9975 279.072 28.9037 279.417 28.716C279.767 28.5233 280.089 28.2596 280.383 27.9248V22.2497H281.738Z" fill="white"/>
<path d="M285.17 23.794C285.414 23.2665 285.713 22.8557 286.068 22.5616C286.423 22.2624 286.857 22.1128 287.369 22.1128C287.531 22.1128 287.686 22.1305 287.833 22.166C287.985 22.2015 288.119 22.2573 288.236 22.3334L288.137 23.3452C288.107 23.472 288.031 23.5353 287.909 23.5353C287.838 23.5353 287.734 23.5201 287.597 23.4897C287.46 23.4593 287.305 23.4441 287.133 23.4441C286.89 23.4441 286.671 23.4796 286.479 23.5506C286.291 23.6216 286.121 23.7281 285.969 23.8701C285.822 24.007 285.688 24.1794 285.566 24.3874C285.449 24.5902 285.343 24.8235 285.246 25.0873V29.956H283.885V22.2497H284.661C284.808 22.2497 284.909 22.2776 284.965 22.3334C285.021 22.3892 285.059 22.4855 285.079 22.6225L285.17 23.794Z" fill="white"/>
<path d="M294.478 23.619C294.437 23.6748 294.397 23.7179 294.356 23.7484C294.316 23.7788 294.26 23.794 294.189 23.794C294.113 23.794 294.029 23.7636 293.938 23.7027C293.847 23.6368 293.732 23.5658 293.595 23.4897C293.464 23.4136 293.299 23.3452 293.101 23.2843C292.908 23.2184 292.67 23.1854 292.386 23.1854C292.006 23.1854 291.671 23.2539 291.382 23.3908C291.093 23.5227 290.849 23.7154 290.651 23.969C290.459 24.2226 290.312 24.5294 290.21 24.8895C290.114 25.2496 290.066 25.6528 290.066 26.0991C290.066 26.5656 290.119 26.9815 290.225 27.3467C290.332 27.7068 290.481 28.0111 290.674 28.2596C290.872 28.503 291.108 28.6907 291.382 28.8225C291.661 28.9493 291.973 29.0127 292.317 29.0127C292.647 29.0127 292.918 28.9747 293.131 28.8986C293.344 28.8174 293.519 28.7287 293.656 28.6323C293.798 28.536 293.915 28.4498 294.006 28.3737C294.103 28.2925 294.196 28.252 294.288 28.252C294.399 28.252 294.486 28.2951 294.546 28.3813L294.927 28.8758C294.759 29.0837 294.569 29.2612 294.356 29.4083C294.143 29.5554 293.912 29.6796 293.664 29.7811C293.421 29.8774 293.164 29.9484 292.896 29.9941C292.627 30.0397 292.353 30.0625 292.074 30.0625C291.592 30.0625 291.143 29.9738 290.727 29.7963C290.317 29.6188 289.959 29.3626 289.655 29.0279C289.351 28.6881 289.112 28.2722 288.94 27.7803C288.767 27.2884 288.681 26.7279 288.681 26.0991C288.681 25.526 288.76 24.996 288.917 24.5091C289.079 24.0222 289.312 23.6038 289.617 23.2539C289.926 22.8989 290.304 22.6225 290.75 22.4247C291.202 22.2269 291.719 22.128 292.302 22.128C292.845 22.128 293.322 22.2167 293.732 22.3942C294.148 22.5667 294.516 22.8126 294.835 23.1322L294.478 23.619Z" fill="white"/>
<path d="M297.811 22.2497V29.956H296.456V22.2497H297.811ZM298.1 19.8305C298.1 19.9624 298.072 20.0866 298.016 20.2033C297.965 20.3149 297.894 20.4163 297.803 20.5076C297.717 20.5938 297.613 20.6623 297.491 20.713C297.374 20.7637 297.25 20.7891 297.118 20.7891C296.986 20.7891 296.862 20.7637 296.746 20.713C296.634 20.6623 296.535 20.5938 296.449 20.5076C296.363 20.4163 296.294 20.3149 296.243 20.2033C296.193 20.0866 296.167 19.9624 296.167 19.8305C296.167 19.6987 296.193 19.5744 296.243 19.4578C296.294 19.336 296.363 19.2321 296.449 19.1459C296.535 19.0546 296.634 18.9836 296.746 18.9328C296.862 18.8821 296.986 18.8568 297.118 18.8568C297.25 18.8568 297.374 18.8821 297.491 18.9328C297.613 18.9836 297.717 19.0546 297.803 19.1459C297.894 19.2321 297.965 19.336 298.016 19.4578C298.072 19.5744 298.1 19.6987 298.1 19.8305Z" fill="white"/>
<path d="M301.314 23.368C301.481 23.1803 301.658 23.0104 301.846 22.8583C302.034 22.7061 302.232 22.5768 302.439 22.4703C302.652 22.3587 302.876 22.275 303.109 22.2193C303.347 22.1584 303.603 22.128 303.877 22.128C304.298 22.128 304.668 22.199 304.988 22.341C305.313 22.4779 305.581 22.6757 305.794 22.9344C306.012 23.1879 306.177 23.4948 306.289 23.8549C306.4 24.2149 306.456 24.6131 306.456 25.0492V29.956H305.094V25.0492C305.094 24.466 304.96 24.0146 304.691 23.6951C304.428 23.3705 304.024 23.2082 303.482 23.2082C303.081 23.2082 302.706 23.3046 302.356 23.4973C302.011 23.69 301.691 23.9512 301.397 24.2809V29.956H300.036V22.2497H300.85C301.042 22.2497 301.161 22.3435 301.207 22.5312L301.314 23.368Z" fill="white"/>
<path d="M311.205 26.1903C311.479 26.1903 311.72 26.1523 311.928 26.0762C312.136 26.0002 312.311 25.8937 312.453 25.7567C312.595 25.6198 312.701 25.4575 312.772 25.2698C312.843 25.0771 312.879 24.8666 312.879 24.6384C312.879 24.1668 312.734 23.7915 312.445 23.5125C312.161 23.2336 311.748 23.0941 311.205 23.0941C310.657 23.0941 310.239 23.2336 309.95 23.5125C309.666 23.7915 309.524 24.1668 309.524 24.6384C309.524 24.8666 309.559 25.0771 309.63 25.2698C309.706 25.4575 309.815 25.6198 309.957 25.7567C310.099 25.8937 310.274 26.0002 310.482 26.0762C310.69 26.1523 310.931 26.1903 311.205 26.1903ZM313.647 30.3744C313.647 30.1868 313.594 30.0346 313.487 29.918C313.381 29.8013 313.236 29.7101 313.054 29.6441C312.876 29.5782 312.668 29.5325 312.43 29.5072C312.191 29.4768 311.938 29.4539 311.669 29.4387C311.405 29.4235 311.137 29.4083 310.863 29.3931C310.589 29.3779 310.325 29.3525 310.072 29.317C309.788 29.4489 309.554 29.6162 309.372 29.8191C309.194 30.0169 309.105 30.2502 309.105 30.519C309.105 30.6914 309.148 30.8512 309.235 30.9982C309.326 31.1504 309.463 31.2797 309.646 31.3862C309.828 31.4978 310.056 31.584 310.33 31.6449C310.609 31.7108 310.936 31.7438 311.312 31.7438C311.677 31.7438 312.004 31.7108 312.293 31.6449C312.582 31.5789 312.825 31.4851 313.023 31.3634C313.226 31.2417 313.381 31.0971 313.487 30.9298C313.594 30.7624 313.647 30.5773 313.647 30.3744ZM315.024 22.554V23.0561C315.024 23.2234 314.917 23.3299 314.704 23.3756L313.83 23.4897C314.002 23.8244 314.088 24.1947 314.088 24.6004C314.088 24.9757 314.015 25.318 313.868 25.6274C313.726 25.9317 313.528 26.1929 313.274 26.411C313.021 26.629 312.716 26.7964 312.361 26.913C312.006 27.0297 311.621 27.088 311.205 27.088C310.845 27.088 310.505 27.0449 310.186 26.9587C310.023 27.0601 309.899 27.1692 309.813 27.2858C309.727 27.3974 309.684 27.5115 309.684 27.6282C309.684 27.8107 309.757 27.9502 309.904 28.0466C310.056 28.1378 310.254 28.2038 310.498 28.2444C310.741 28.2849 311.017 28.3103 311.327 28.3204C311.641 28.3306 311.961 28.3483 312.285 28.3737C312.615 28.394 312.934 28.432 313.244 28.4878C313.558 28.5436 313.837 28.6349 314.081 28.7617C314.324 28.8885 314.519 29.0634 314.666 29.2866C314.819 29.5097 314.895 29.7988 314.895 30.1538C314.895 30.4835 314.811 30.803 314.644 31.1124C314.481 31.4217 314.245 31.6956 313.936 31.934C313.627 32.1774 313.246 32.3701 312.795 32.5121C312.349 32.6592 311.844 32.7327 311.281 32.7327C310.718 32.7327 310.226 32.677 309.805 32.5654C309.384 32.4538 309.034 32.3042 308.755 32.1165C308.477 31.9289 308.266 31.7108 308.124 31.4623C307.987 31.2189 307.919 30.9627 307.919 30.6939C307.919 30.3136 308.038 29.9915 308.276 29.7278C308.515 29.4641 308.842 29.2536 309.258 29.0964C309.029 28.995 308.847 28.8606 308.71 28.6932C308.578 28.5208 308.512 28.29 308.512 28.0009C308.512 27.8893 308.532 27.7752 308.573 27.6586C308.613 27.5369 308.674 27.4177 308.755 27.301C308.842 27.1793 308.946 27.0652 309.067 26.9587C309.189 26.8522 309.331 26.7584 309.493 26.6772C309.113 26.4642 308.816 26.1827 308.603 25.8328C308.39 25.4778 308.284 25.067 308.284 24.6004C308.284 24.2251 308.355 23.8853 308.497 23.581C308.644 23.2716 308.847 23.0104 309.105 22.7974C309.364 22.5793 309.671 22.412 310.026 22.2953C310.386 22.1787 310.779 22.1204 311.205 22.1204C311.54 22.1204 311.852 22.1584 312.141 22.2345C312.43 22.3055 312.694 22.412 312.932 22.554H315.024Z" fill="white"/>
<path d="M5.76819 0.602107H11.394L17.1621 29.8967H12.2841L11.1447 23.1336H6.12425L4.94925 29.8967H0L5.76819 0.602107ZM10.575 19.734L8.61668 7.43752L6.65834 19.734H10.575Z" fill="white"/>
<path d="M20.0626 0.602107H27.0058C30.0442 0.602107 32.3111 1.19282 33.8066 2.37425C35.3021 3.53157 36.0498 5.53276 36.0498 8.37784C36.0498 10.2344 35.7768 11.7534 35.2308 12.9348C34.7086 14.0921 33.7947 14.936 32.4892 15.4664L36.5127 29.8967H31.243L27.7892 16.4791H25.2967V29.8967H20.0626V0.602107ZM26.9702 13.1518C28.4657 13.1518 29.522 12.8022 30.1392 12.103C30.7801 11.4037 31.1005 10.2585 31.1005 8.66717C31.1005 7.12408 30.8157 6.00293 30.246 5.30371C29.7 4.6045 28.7031 4.25489 27.2551 4.25489H25.2967V13.1518H26.9702Z" fill="white"/>
<path d="M47.1105 30.2946C44.3807 30.2946 42.4105 29.4386 41.1999 27.7268C40.013 25.9908 39.4196 23.4953 39.4196 20.2404V10.4031C39.4196 7.05175 40.0367 4.53217 41.2711 2.84441C42.5054 1.13254 44.6299 0.276611 47.6446 0.276611C50.4931 0.276611 52.5345 0.999935 53.7688 2.44658C55.0032 3.86912 55.6203 5.99087 55.6203 8.81183V10.3308H50.5999V8.66717C50.5999 7.60629 50.5287 6.76242 50.3862 6.13554C50.2676 5.50866 49.9946 5.02644 49.5673 4.68889C49.1638 4.35134 48.5466 4.18256 47.7158 4.18256C46.8375 4.18256 46.1847 4.39956 45.7575 4.83355C45.3302 5.26755 45.0453 5.8221 44.9029 6.4972C44.7842 7.1723 44.7249 8.05234 44.7249 9.13733V21.3977C44.7249 23.0613 44.9385 24.303 45.3658 25.1228C45.8168 25.9426 46.6476 26.3524 47.8582 26.3524C49.0451 26.3524 49.864 25.9184 50.315 25.0505C50.7898 24.1825 51.0272 22.8805 51.0272 21.1445V18.3959H47.9294V15.0324H55.7628V29.8967H52.3446L51.9885 27.0396C51.0865 29.2096 49.4605 30.2946 47.1105 30.2946Z" fill="white"/>
<path d="M59.7718 0.602107H71.8779V4.36339H65.0059V12.7901H70.418V16.5152H65.0059V26.2439H71.9491V29.8967H59.7718V0.602107Z" fill="white"/>
<path d="M75.0018 0.602107H78.6692L85.6836 17.3109V0.602107H90.0275V29.8967H86.5381L79.4881 12.3923V29.8967H75.0018V0.602107Z" fill="white"/>
<path d="M97.2884 4.54422H92.6952V0.602107H107.044V4.54422H102.558V29.8967H97.2884V4.54422Z" fill="white"/>
<path d="M109.811 0.602107H115.01V29.8967H109.811V0.602107Z" fill="white"/>
<path d="M127.237 30.2946C124.246 30.2946 122.121 29.4507 120.863 27.7629C119.629 26.0511 119.012 23.64 119.012 20.5297V10.0777C119.012 6.87091 119.629 4.43572 120.863 2.77208C122.098 1.10843 124.222 0.276611 127.237 0.276611C130.061 0.276611 132.067 0.999935 133.254 2.44658C134.441 3.89323 135.034 5.97881 135.034 8.70334V11.1626H129.978V8.631C129.978 7.59424 129.931 6.78653 129.836 6.20787C129.741 5.6051 129.492 5.12288 129.088 4.76122C128.708 4.37545 128.103 4.18256 127.272 4.18256C126.418 4.18256 125.777 4.3875 125.35 4.79739C124.922 5.18316 124.637 5.7136 124.495 6.3887C124.376 7.03969 124.317 7.89562 124.317 8.9565V21.6508C124.317 23.3145 124.531 24.52 124.958 25.2675C125.385 25.9908 126.157 26.3524 127.272 26.3524C128.079 26.3524 128.673 26.1595 129.053 25.7738C129.456 25.388 129.705 24.8817 129.8 24.2548C129.919 23.6038 129.978 22.7479 129.978 21.687V19.0469H135.034V21.3977C135.034 24.2186 134.453 26.4127 133.29 27.9799C132.127 29.523 130.109 30.2946 127.237 30.2946Z" fill="white"/>
<path d="M145.967 30.2946C143.356 30.2946 141.397 29.5471 140.092 28.0522C138.81 26.5574 138.11 24.3271 137.991 21.3615L142.513 20.4573C142.584 22.3139 142.869 23.7364 143.368 24.725C143.89 25.6894 144.697 26.1716 145.789 26.1716C146.596 26.1716 147.189 25.9305 147.569 25.4483C147.973 24.942 148.175 24.2669 148.175 23.423C148.175 22.2657 147.913 21.2892 147.391 20.4935C146.893 19.6737 146.097 18.7816 145.006 17.8172L141.374 14.5984C140.258 13.634 139.415 12.5972 138.846 11.4881C138.3 10.379 138.027 9.05294 138.027 7.50985C138.027 5.21933 138.68 3.44718 139.985 2.19342C141.314 0.915548 143.142 0.276611 145.468 0.276611C147.961 0.276611 149.741 0.999935 150.809 2.44658C151.901 3.86912 152.53 5.79798 152.696 8.23317L148.175 9.02883C148.103 7.43752 147.878 6.24403 147.498 5.44838C147.142 4.62861 146.43 4.21873 145.362 4.21873C144.602 4.21873 144.009 4.48395 143.581 5.01438C143.154 5.52071 142.94 6.1717 142.94 6.96736C142.94 7.90768 143.118 8.70334 143.475 9.35433C143.854 9.98121 144.46 10.6563 145.29 11.3796L148.887 14.5984C150.24 15.7799 151.296 17.0457 152.056 18.3959C152.815 19.7461 153.195 21.3133 153.195 23.0975C153.195 24.4959 152.886 25.7376 152.269 26.8226C151.676 27.9076 150.833 28.7635 149.741 29.3904C148.649 29.9932 147.391 30.2946 145.967 30.2946Z" fill="white"/>
<path opacity="0.5" d="M167.057 0.159912L167.057 30.3072" stroke="white"/>
</svg>
